<?xml version="1.0" encoding="utf-8"?>
<!-- Generator: Adobe Illustrator 25.2.3, SVG Export Plug-In . SVG Version: 6.00 Build 0)  -->
<svg version="1.1" id="Capa_1" xmlns="http://www.w3.org/2000/svg" xmlns:xlink="http://www.w3.org/1999/xlink" x="0px" y="0px"
	 viewBox="0 0 100 50" style="enable-background:new 0 0 100 50;" xml:space="preserve">
<style type="text/css">
	.st0{fill:#1A748F;}
</style>
<g>
	<g>
		<polygon class="st0" points="81.98,13.93 78.84,13.93 78.84,13.75 81.91,13.75 84.49,11.3 90.25,11.3 91.35,10.28 96.35,10.28 
			99.29,13 99.16,13.13 96.27,10.46 91.43,10.46 90.33,11.48 84.57,11.48 		"/>
		<polygon class="st0" points="99.1,17.63 93.83,17.63 90.12,14.2 86.35,14.2 82.83,17.47 70.64,17.47 67.79,14.83 63.76,14.83 
			63.76,14.65 67.87,14.65 70.72,17.29 82.75,17.29 86.27,14.02 90.2,14.02 93.91,17.45 99.1,17.45 		"/>
		<polygon class="st0" points="71.11,20.02 62.84,20.02 61.39,18.67 55.41,18.67 55.41,18.49 61.47,18.49 62.92,19.83 71.03,19.83 
			76,15.24 83.59,15.24 87.04,12.04 96.22,12.04 97.76,13.46 99.29,13.46 99.29,13.64 97.68,13.64 96.14,12.22 87.12,12.22 
			83.67,15.42 76.08,15.42 		"/>
		<polygon class="st0" points="88.42,30.8 85.05,30.8 81.58,27.59 77.18,27.59 67.41,18.55 63.82,18.55 63.82,18.37 67.49,18.37 
			77.26,27.42 81.66,27.42 85.12,30.62 88.42,30.62 		"/>
		<polygon class="st0" points="92.57,20.77 87.66,20.77 85.68,18.94 74.89,18.94 74.89,18.58 85.84,18.58 87.82,20.41 92.42,20.41 
			94.92,18.08 99.29,18.08 99.29,18.44 95.08,18.44 		"/>
		<polygon class="st0" points="83.99,24.12 76.18,24.12 76.18,23.94 83.91,23.94 86.34,21.69 94.78,21.69 96.35,20.24 99.61,20.24 
			99.61,20.42 96.43,20.42 94.87,21.87 86.42,21.87 		"/>
		<polygon class="st0" points="89.53,27.44 86.08,27.44 78.69,20.6 73.92,20.6 70.37,23.88 58.76,23.88 56.78,25.71 53.99,25.71 
			53.99,25.35 56.62,25.35 58.6,23.52 70.21,23.52 73.76,20.24 78.85,20.24 86.24,27.08 89.37,27.08 90.95,25.61 99.55,25.61 
			99.55,25.97 91.11,25.97 		"/>
		<polygon class="st0" points="85.07,26.58 72.32,26.58 66.46,21.15 59.68,21.15 59.68,20.79 66.62,20.79 72.48,26.22 84.9,26.22 
			87.64,23.68 99.29,23.68 99.29,24.05 87.8,24.05 		"/>
		<polygon class="st0" points="58.3,27.84 53.99,27.84 53.99,27.66 58.22,27.66 61.1,24.99 69.39,24.99 69.39,25.17 61.18,25.17 		
			"/>
		<polygon class="st0" points="96.48,35.2 81.65,35.2 77.44,31.31 69.87,31.31 66.89,28.56 63.89,28.56 63.89,28.38 66.97,28.38 
			69.95,31.13 77.52,31.13 81.72,35.02 96.4,35.02 99.06,32.57 100,32.57 100,32.75 99.14,32.75 		"/>
		<polygon class="st0" points="94.02,40 81.52,40 80.22,38.8 73.42,38.8 64.56,30.59 52.6,30.59 50.82,32.25 50.68,32.12 
			52.52,30.41 64.64,30.41 73.51,38.62 80.3,38.62 81.59,39.82 93.94,39.82 94.91,38.92 99.81,38.92 99.81,39.1 94.99,39.1 		"/>
		<polygon class="st0" points="71.63,32.39 61.36,32.39 61.36,32.21 71.55,32.21 75.3,28.73 88.76,28.73 93.04,24.78 99.61,24.78 
			99.61,24.96 93.12,24.96 88.85,28.91 75.38,28.91 		"/>
		<path class="st0" d="M79.23,13.84c0,0.2-0.17,0.36-0.39,0.36c-0.22,0-0.39-0.16-0.39-0.36c0-0.2,0.17-0.36,0.39-0.36
			C79.05,13.49,79.23,13.64,79.23,13.84z"/>
		<path class="st0" d="M64.15,14.77c0,0.2-0.18,0.36-0.39,0.36c-0.21,0-0.39-0.16-0.39-0.36c0-0.2,0.17-0.36,0.39-0.36
			C63.97,14.41,64.15,14.57,64.15,14.77z"/>
		<path class="st0" d="M64.28,18.55c0,0.2-0.18,0.36-0.39,0.36s-0.39-0.16-0.39-0.36c0-0.2,0.18-0.36,0.39-0.36
			S64.28,18.35,64.28,18.55z"/>
		<path class="st0" d="M54.44,27.75c0,0.2-0.17,0.36-0.39,0.36c-0.22,0-0.39-0.16-0.39-0.36c0-0.2,0.18-0.36,0.39-0.36
			C54.26,27.39,54.44,27.55,54.44,27.75z"/>
		<ellipse class="st0" cx="69.39" cy="25.08" rx="0.39" ry="0.36"/>
		<path class="st0" d="M64.34,28.44c0,0.2-0.17,0.36-0.39,0.36c-0.22,0-0.39-0.16-0.39-0.36c0-0.2,0.17-0.36,0.39-0.36
			C64.17,28.07,64.34,28.24,64.34,28.44z"/>
		<path class="st0" d="M65.05,30.59c0,0.2-0.17,0.36-0.39,0.36c-0.22,0-0.39-0.16-0.39-0.36c0-0.2,0.17-0.36,0.39-0.36
			C64.88,30.23,65.05,30.39,65.05,30.59z"/>
		<path class="st0" d="M81.89,27.45c0,0.2-0.18,0.36-0.39,0.36c-0.21,0-0.39-0.16-0.39-0.36c0-0.2,0.17-0.36,0.39-0.36
			C81.72,27.09,81.89,27.25,81.89,27.45z"/>
		<path class="st0" d="M86.75,21.69c0,0.2-0.18,0.36-0.39,0.36c-0.22,0-0.39-0.16-0.39-0.36c0-0.2,0.17-0.36,0.39-0.36
			C86.57,21.34,86.75,21.49,86.75,21.69z"/>
		<path class="st0" d="M71.07,17.38c0,0.2-0.17,0.36-0.39,0.36c-0.22,0-0.39-0.16-0.39-0.36c0-0.2,0.17-0.36,0.39-0.36
			C70.9,17.02,71.07,17.18,71.07,17.38z"/>
		<path class="st0" d="M76.6,23.97c0,0.2-0.17,0.36-0.38,0.36c-0.22,0-0.39-0.16-0.39-0.36c0-0.2,0.17-0.36,0.39-0.36
			C76.43,23.61,76.6,23.77,76.6,23.97z"/>
		<path class="st0" d="M77.91,31.21c0,0.2-0.17,0.36-0.39,0.36c-0.21,0-0.39-0.16-0.39-0.36c0-0.2,0.18-0.36,0.39-0.36
			C77.74,30.85,77.91,31.01,77.91,31.21z"/>
		<path class="st0" d="M82.07,35.02c0,0.2-0.18,0.36-0.39,0.36c-0.22,0-0.39-0.16-0.39-0.36c0-0.2,0.18-0.36,0.39-0.36
			C81.9,34.67,82.07,34.83,82.07,35.02z"/>
		<path class="st0" d="M51.04,32.21c0,0.2-0.17,0.36-0.39,0.36c-0.22,0-0.39-0.16-0.39-0.36c0-0.2,0.18-0.36,0.39-0.36
			C50.87,31.85,51.04,32.01,51.04,32.21z"/>
		<path class="st0" d="M61.81,32.27c0,0.2-0.17,0.36-0.39,0.36c-0.22,0-0.39-0.16-0.39-0.36c0-0.2,0.17-0.36,0.39-0.36
			C61.64,31.91,61.81,32.07,61.81,32.27z"/>
		<path class="st0" d="M88.55,30.62c0,0.2-0.18,0.36-0.39,0.36c-0.22,0-0.39-0.16-0.39-0.36c0-0.19,0.17-0.36,0.39-0.36
			C88.37,30.26,88.55,30.43,88.55,30.62z"/>
		<path class="st0" d="M96.81,20.32c0,0.2-0.17,0.36-0.39,0.36c-0.22,0-0.39-0.16-0.39-0.36c0-0.2,0.17-0.36,0.39-0.36
			C96.64,19.96,96.81,20.12,96.81,20.32z"/>
		<path class="st0" d="M75.73,28.83c0,0.2-0.17,0.36-0.39,0.36c-0.22,0-0.39-0.16-0.39-0.36c0-0.2,0.18-0.36,0.39-0.36
			C75.56,28.47,75.73,28.63,75.73,28.83z"/>
		<path class="st0" d="M76.43,15.32c0,0.2-0.18,0.36-0.39,0.36c-0.22,0-0.39-0.16-0.39-0.36c0-0.2,0.17-0.36,0.39-0.36
			C76.25,14.97,76.43,15.13,76.43,15.32z"/>
		<path class="st0" d="M84.97,11.42c0,0.2-0.17,0.36-0.39,0.36c-0.22,0-0.39-0.16-0.39-0.36c0-0.2,0.18-0.36,0.39-0.36
			C84.8,11.06,84.97,11.22,84.97,11.42z"/>
		<path class="st0" d="M91.79,10.36c0,0.2-0.18,0.36-0.39,0.36c-0.21,0-0.39-0.16-0.39-0.36c0-0.2,0.18-0.36,0.39-0.36
			C91.62,10,91.79,10.16,91.79,10.36z"/>
		<path class="st0" d="M96.7,10.36c0,0.2-0.18,0.36-0.39,0.36c-0.22,0-0.39-0.16-0.39-0.36c0-0.2,0.17-0.36,0.39-0.36
			C96.53,10,96.7,10.16,96.7,10.36z"/>
		<path class="st0" d="M96.61,12.07c0,0.2-0.18,0.36-0.39,0.36c-0.22,0-0.39-0.16-0.39-0.36c0-0.2,0.18-0.36,0.39-0.36
			C96.43,11.71,96.61,11.87,96.61,12.07z"/>
		<path class="st0" d="M90.51,14.14c0,0.2-0.17,0.36-0.39,0.36c-0.22,0-0.39-0.16-0.39-0.36c0-0.2,0.17-0.36,0.39-0.36
			C90.34,13.77,90.51,13.94,90.51,14.14z"/>
		<path class="st0" d="M83.17,17.38c0,0.2-0.17,0.36-0.39,0.36c-0.22,0-0.39-0.16-0.39-0.36c0-0.2,0.18-0.36,0.39-0.36
			C83,17.02,83.17,17.18,83.17,17.38z"/>
		<path class="st0" d="M55.9,18.58c0,0.2-0.18,0.36-0.39,0.36c-0.22,0-0.39-0.16-0.39-0.36c0-0.2,0.17-0.36,0.39-0.36
			C55.72,18.22,55.9,18.38,55.9,18.58z"/>
		<path class="st0" d="M60.26,20.97c0,0.28-0.24,0.51-0.55,0.51c-0.3,0-0.55-0.23-0.55-0.51c0-0.28,0.24-0.51,0.55-0.51
			C60.02,20.46,60.26,20.69,60.26,20.97z"/>
		<path class="st0" d="M75.48,18.77c0,0.28-0.25,0.51-0.55,0.51c-0.3,0-0.55-0.23-0.55-0.51c0-0.28,0.25-0.51,0.55-0.51
			C75.23,18.26,75.48,18.49,75.48,18.77z"/>
		<path class="st0" d="M86.35,18.79c0,0.28-0.24,0.51-0.55,0.51c-0.3,0-0.55-0.23-0.55-0.51c0-0.28,0.24-0.51,0.55-0.51
			C86.11,18.28,86.35,18.51,86.35,18.79z"/>
		<path class="st0" d="M54.47,25.56c0,0.28-0.25,0.51-0.55,0.51s-0.55-0.22-0.55-0.51c0-0.28,0.25-0.51,0.55-0.51
			S54.47,25.28,54.47,25.56z"/>
		<polygon class="st0" points="80.2,16.81 77.87,16.81 77.87,16.68 80.14,16.68 82.05,14.86 86.32,14.86 87.13,14.11 90.83,14.11 
			93,16.13 92.9,16.22 90.77,14.25 87.19,14.25 86.37,15 82.11,15 		"/>
		<polygon class="st0" points="92.85,19.55 88.96,19.55 86.22,17.02 83.43,17.02 80.82,19.43 71.81,19.43 69.7,17.48 66.72,17.48 
			66.72,17.35 69.77,17.35 71.87,19.3 80.76,19.3 83.37,16.88 86.28,16.88 89.02,19.42 92.85,19.42 		"/>
		<polygon class="st0" points="72.16,21.31 66.04,21.31 64.97,20.32 60.55,20.32 60.55,20.18 65.03,20.18 66.1,21.18 72.1,21.18 
			75.77,17.78 81.38,17.78 83.94,15.41 90.73,15.41 91.87,16.47 93,16.47 93,16.6 91.81,16.6 90.67,15.55 84,15.55 81.44,17.91 
			75.83,17.91 		"/>
		<polygon class="st0" points="84.96,29.29 82.47,29.29 79.9,26.92 76.65,26.92 69.42,20.23 66.77,20.23 66.77,20.09 69.48,20.09 
			76.7,26.79 79.96,26.79 82.52,29.16 84.96,29.16 		"/>
		<polygon class="st0" points="88.03,21.87 84.39,21.87 82.94,20.52 74.95,20.52 74.95,20.25 83.05,20.25 84.51,21.6 87.91,21.6 
			89.77,19.88 93,19.88 93,20.15 89.89,20.15 		"/>
		<polygon class="st0" points="81.68,24.35 75.91,24.35 75.91,24.22 81.62,24.22 83.42,22.55 89.67,22.55 90.83,21.48 93.24,21.48 
			93.24,21.61 90.89,21.61 89.72,22.69 83.48,22.69 		"/>
		<polygon class="st0" points="85.78,26.8 83.23,26.8 77.77,21.75 74.23,21.75 71.61,24.17 63.02,24.17 61.56,25.52 59.49,25.52 
			59.49,25.26 61.44,25.26 62.9,23.91 71.5,23.91 74.11,21.48 77.88,21.48 83.35,26.54 85.66,26.54 86.83,25.45 93.19,25.45 
			93.19,25.72 86.95,25.72 		"/>
		<polygon class="st0" points="82.48,26.17 73.05,26.17 68.72,22.16 63.7,22.16 63.7,21.89 68.84,21.89 73.17,25.9 82.36,25.9 
			84.38,24.03 93,24.03 93,24.29 84.5,24.29 		"/>
		<polygon class="st0" points="62.68,27.1 59.49,27.1 59.49,26.96 62.62,26.96 64.75,24.99 70.88,24.99 70.88,25.12 64.81,25.12 		
			"/>
		<polygon class="st0" points="90.92,32.55 79.95,32.55 76.84,29.67 71.24,29.67 69.04,27.63 66.81,27.63 66.81,27.5 69.1,27.5 
			71.29,29.53 76.9,29.53 80.01,32.41 90.86,32.41 92.82,30.6 93.52,30.6 93.52,30.73 92.88,30.73 		"/>
		<polygon class="st0" points="89.1,36.09 79.85,36.09 78.9,35.21 73.87,35.21 67.31,29.14 58.47,29.14 57.15,30.36 57.05,30.26 
			58.41,29 67.37,29 73.93,35.07 78.96,35.07 79.91,35.96 89.04,35.96 89.76,35.3 93.38,35.3 93.38,35.43 89.82,35.43 		"/>
		<polygon class="st0" points="72.54,30.47 64.95,30.47 64.95,30.33 72.48,30.33 75.26,27.76 85.21,27.76 88.37,24.84 93.24,24.84 
			93.24,24.97 88.43,24.97 85.28,27.9 75.32,27.9 		"/>
		<path class="st0" d="M78.16,16.75c0,0.15-0.13,0.27-0.29,0.27c-0.16,0-0.29-0.12-0.29-0.27s0.13-0.27,0.29-0.27
			C78.03,16.48,78.16,16.6,78.16,16.75z"/>
		<path class="st0" d="M67.01,17.43c0,0.15-0.13,0.27-0.29,0.27c-0.16,0-0.29-0.12-0.29-0.27c0-0.15,0.13-0.27,0.29-0.27
			C66.88,17.17,67.01,17.29,67.01,17.43z"/>
		<path class="st0" d="M67.1,20.23c0,0.15-0.13,0.27-0.29,0.27c-0.16,0-0.29-0.12-0.29-0.27s0.13-0.27,0.29-0.27
			C66.97,19.96,67.1,20.08,67.1,20.23z"/>
		<path class="st0" d="M59.83,27.03c0,0.15-0.13,0.27-0.29,0.27c-0.16,0-0.29-0.12-0.29-0.27c0-0.15,0.13-0.27,0.29-0.27
			C59.7,26.77,59.83,26.88,59.83,27.03z"/>
		<path class="st0" d="M71.17,25.06c0,0.15-0.13,0.27-0.29,0.27c-0.16,0-0.29-0.12-0.29-0.27c0-0.15,0.13-0.27,0.29-0.27
			C71.04,24.79,71.17,24.91,71.17,25.06z"/>
		<path class="st0" d="M67.15,27.54c0,0.15-0.13,0.26-0.29,0.26c-0.16,0-0.29-0.12-0.29-0.26c0-0.15,0.13-0.27,0.29-0.27
			C67.02,27.27,67.15,27.39,67.15,27.54z"/>
		<path class="st0" d="M67.68,29.14c0,0.15-0.13,0.27-0.29,0.27c-0.16,0-0.29-0.12-0.29-0.27c0-0.15,0.13-0.27,0.29-0.27
			C67.55,28.87,67.68,28.99,67.68,29.14z"/>
		<path class="st0" d="M80.13,26.81c0,0.15-0.13,0.27-0.29,0.27c-0.16,0-0.28-0.12-0.28-0.27c0-0.15,0.13-0.27,0.28-0.27
			C80.01,26.54,80.13,26.66,80.13,26.81z"/>
		<path class="st0" d="M83.73,22.55c0,0.15-0.13,0.27-0.29,0.27c-0.16,0-0.29-0.12-0.29-0.27c0-0.15,0.13-0.26,0.29-0.26
			C83.6,22.29,83.73,22.41,83.73,22.55z"/>
		<path class="st0" d="M72.13,19.36c0,0.15-0.13,0.27-0.28,0.27c-0.16,0-0.29-0.12-0.29-0.27c0-0.15,0.13-0.27,0.29-0.27
			C72,19.1,72.13,19.22,72.13,19.36z"/>
		<path class="st0" d="M76.22,24.24c0,0.15-0.13,0.27-0.29,0.27c-0.16,0-0.28-0.12-0.28-0.27c0-0.15,0.13-0.27,0.28-0.27
			C76.09,23.97,76.22,24.09,76.22,24.24z"/>
		<path class="st0" d="M77.19,29.59c0,0.15-0.13,0.27-0.28,0.27c-0.16,0-0.29-0.12-0.29-0.27c0-0.15,0.13-0.27,0.29-0.27
			C77.06,29.32,77.19,29.44,77.19,29.59z"/>
		<path class="st0" d="M80.27,32.41c0,0.15-0.13,0.27-0.29,0.27c-0.16,0-0.29-0.12-0.29-0.27c0-0.15,0.13-0.26,0.29-0.26
			C80.14,32.15,80.27,32.27,80.27,32.41z"/>
		<path class="st0" d="M57.31,30.33c0,0.15-0.13,0.26-0.29,0.26c-0.16,0-0.29-0.12-0.29-0.26c0-0.15,0.13-0.27,0.29-0.27
			C57.19,30.07,57.31,30.19,57.31,30.33z"/>
		<path class="st0" d="M65.28,30.38c0,0.15-0.13,0.26-0.29,0.26c-0.16,0-0.29-0.12-0.29-0.26c0-0.15,0.13-0.27,0.29-0.27
			C65.15,30.11,65.28,30.23,65.28,30.38z"/>
		<path class="st0" d="M85.05,29.16c0,0.15-0.13,0.27-0.29,0.27c-0.16,0-0.29-0.12-0.29-0.27c0-0.14,0.13-0.26,0.29-0.26
			C84.92,28.89,85.05,29.01,85.05,29.16z"/>
		<path class="st0" d="M91.17,21.54c0,0.15-0.13,0.26-0.29,0.26c-0.16,0-0.29-0.12-0.29-0.26s0.13-0.27,0.29-0.27
			C91.04,21.27,91.17,21.39,91.17,21.54z"/>
		<path class="st0" d="M75.58,27.83c0,0.15-0.13,0.27-0.29,0.27c-0.16,0-0.29-0.12-0.29-0.27c0-0.15,0.13-0.27,0.29-0.27
			C75.45,27.57,75.58,27.68,75.58,27.83z"/>
		<path class="st0" d="M76.09,17.84c0,0.15-0.13,0.27-0.29,0.27c-0.16,0-0.29-0.12-0.29-0.27s0.13-0.27,0.29-0.27
			C75.96,17.58,76.09,17.7,76.09,17.84z"/>
		<path class="st0" d="M82.41,14.95c0,0.15-0.13,0.27-0.29,0.27c-0.16,0-0.29-0.12-0.29-0.27c0-0.15,0.13-0.27,0.29-0.27
			C82.28,14.69,82.41,14.81,82.41,14.95z"/>
		<path class="st0" d="M87.45,14.17c0,0.15-0.13,0.27-0.29,0.27c-0.16,0-0.29-0.12-0.29-0.27s0.13-0.27,0.29-0.27
			C87.32,13.91,87.45,14.03,87.45,14.17z"/>
		<path class="st0" d="M91.08,14.17c0,0.15-0.13,0.27-0.29,0.27c-0.16,0-0.29-0.12-0.29-0.27s0.13-0.27,0.29-0.27
			C90.95,13.91,91.08,14.03,91.08,14.17z"/>
		<path class="st0" d="M91.01,15.44c0,0.15-0.13,0.27-0.29,0.27c-0.16,0-0.29-0.12-0.29-0.27c0-0.15,0.13-0.27,0.29-0.27
			C90.88,15.17,91.01,15.29,91.01,15.44z"/>
		<path class="st0" d="M86.51,16.96c0,0.15-0.13,0.27-0.29,0.27c-0.16,0-0.28-0.12-0.28-0.27s0.13-0.27,0.28-0.27
			C86.38,16.7,86.51,16.82,86.51,16.96z"/>
		<path class="st0" d="M81.08,19.36c0,0.15-0.13,0.27-0.28,0.27c-0.16,0-0.29-0.12-0.29-0.27c0-0.15,0.13-0.27,0.29-0.27
			C80.95,19.1,81.08,19.22,81.08,19.36z"/>
		<path class="st0" d="M60.9,20.25c0,0.15-0.13,0.27-0.29,0.27s-0.29-0.12-0.29-0.27c0-0.15,0.13-0.27,0.29-0.27
			S60.9,20.1,60.9,20.25z"/>
		<path class="st0" d="M64.13,22.02c0,0.21-0.18,0.38-0.4,0.38c-0.23,0-0.41-0.17-0.41-0.38c0-0.21,0.18-0.38,0.41-0.38
			C63.95,21.65,64.13,21.81,64.13,22.02z"/>
		<path class="st0" d="M75.39,20.39c0,0.21-0.18,0.38-0.41,0.38c-0.22,0-0.41-0.17-0.41-0.38c0-0.21,0.19-0.37,0.41-0.37
			C75.21,20.02,75.39,20.19,75.39,20.39z"/>
		<path class="st0" d="M83.43,20.41c0,0.21-0.18,0.38-0.41,0.38c-0.22,0-0.4-0.17-0.4-0.38c0-0.21,0.18-0.38,0.4-0.38
			C83.25,20.03,83.43,20.2,83.43,20.41z"/>
		<path class="st0" d="M59.85,25.41c0,0.21-0.18,0.37-0.41,0.37c-0.23,0-0.41-0.17-0.41-0.37c0-0.21,0.18-0.38,0.41-0.38
			C59.67,25.04,59.85,25.2,59.85,25.41z"/>
		<polygon class="st0" points="79.56,17.85 77.53,17.85 77.53,17.74 79.51,17.74 81.18,16.15 84.9,16.15 85.61,15.49 88.84,15.49 
			90.73,17.25 90.65,17.33 88.78,15.61 85.66,15.61 84.95,16.27 81.23,16.27 		"/>
		<polygon class="st0" points="90.61,20.24 87.21,20.24 84.81,18.03 82.38,18.03 80.1,20.14 72.23,20.14 70.39,18.43 67.79,18.43 
			67.79,18.32 70.45,18.32 72.29,20.02 80.05,20.02 82.33,17.91 84.86,17.91 87.26,20.13 90.61,20.13 		"/>
		<polygon class="st0" points="72.53,21.78 67.2,21.78 66.26,20.91 62.4,20.91 62.4,20.8 66.31,20.8 67.25,21.66 72.48,21.66 
			75.69,18.7 80.59,18.7 82.82,16.63 88.75,16.63 89.75,17.55 90.73,17.55 90.73,17.67 89.7,17.67 88.7,16.75 82.88,16.75 
			80.64,18.81 75.74,18.81 		"/>
		<polygon class="st0" points="83.71,28.75 81.53,28.75 79.29,26.68 76.45,26.68 70.14,20.83 67.83,20.83 67.83,20.72 70.2,20.72 
			76.51,26.56 79.35,26.56 81.58,28.63 83.71,28.63 		"/>
		<polygon class="st0" points="86.4,22.27 83.22,22.27 81.95,21.09 74.97,21.09 74.97,20.85 82.05,20.85 83.33,22.03 86.29,22.03 
			87.91,20.53 90.73,20.53 90.73,20.76 88.01,20.76 		"/>
		<polygon class="st0" points="80.85,24.43 75.81,24.43 75.81,24.32 80.8,24.32 82.37,22.86 87.82,22.86 88.84,21.93 90.94,21.93 
			90.94,22.04 88.89,22.04 87.88,22.98 82.42,22.98 		"/>
		<polygon class="st0" points="84.43,26.57 82.2,26.57 77.43,22.16 74.35,22.16 72.06,24.28 64.56,24.28 63.28,25.46 61.48,25.46 
			61.48,25.22 63.18,25.22 64.45,24.04 71.95,24.04 74.24,21.93 77.53,21.93 82.3,26.34 84.33,26.34 85.35,25.4 90.9,25.4 
			90.9,25.63 85.45,25.63 		"/>
		<polygon class="st0" points="81.55,26.02 73.31,26.02 69.53,22.52 65.15,22.52 65.15,22.28 69.64,22.28 73.42,25.79 81.44,25.79 
			83.21,24.15 90.73,24.15 90.73,24.38 83.31,24.38 		"/>
		<polygon class="st0" points="64.26,26.83 61.48,26.83 61.48,26.71 64.21,26.71 66.07,24.99 71.42,24.99 71.42,25.11 66.12,25.11 
					"/>
		<polygon class="st0" points="88.92,31.59 79.34,31.59 76.62,29.07 71.73,29.07 69.81,27.3 67.87,27.3 67.87,27.18 69.86,27.18 
			71.78,28.96 76.67,28.96 79.39,31.47 88.87,31.47 90.58,29.89 91.19,29.89 91.19,30 90.63,30 		"/>
		<polygon class="st0" points="87.33,34.69 79.25,34.69 78.42,33.91 74.03,33.91 68.3,28.61 60.58,28.61 59.43,29.68 59.34,29.59 
			60.53,28.49 68.36,28.49 74.08,33.8 78.47,33.8 79.31,34.57 87.28,34.57 87.91,33.99 91.07,33.99 91.07,34.11 87.96,34.11 		"/>
		<polygon class="st0" points="72.87,29.77 66.24,29.77 66.24,29.66 72.82,29.66 75.24,27.41 83.93,27.41 86.69,24.86 90.94,24.86 
			90.94,24.97 86.75,24.97 83.99,27.53 75.29,27.53 		"/>
		<path class="st0" d="M77.77,17.8c0,0.13-0.11,0.23-0.25,0.23c-0.14,0-0.25-0.1-0.25-0.23s0.11-0.23,0.25-0.23
			C77.66,17.56,77.77,17.67,77.77,17.8z"/>
		<path class="st0" d="M68.04,18.39c0,0.13-0.11,0.23-0.25,0.23c-0.14,0-0.25-0.1-0.25-0.23c0-0.13,0.11-0.23,0.25-0.23
			C67.93,18.16,68.04,18.27,68.04,18.39z"/>
		<path class="st0" d="M68.12,20.83c0,0.13-0.11,0.23-0.25,0.23c-0.14,0-0.25-0.1-0.25-0.23s0.11-0.23,0.25-0.23
			C68.01,20.6,68.12,20.71,68.12,20.83z"/>
		<path class="st0" d="M61.77,26.77c0,0.13-0.11,0.23-0.25,0.23s-0.25-0.1-0.25-0.23c0-0.13,0.11-0.23,0.25-0.23
			S61.77,26.64,61.77,26.77z"/>
		<path class="st0" d="M71.67,25.05c0,0.13-0.11,0.23-0.25,0.23s-0.25-0.1-0.25-0.23c0-0.13,0.11-0.23,0.25-0.23
			S71.67,24.92,71.67,25.05z"/>
		<path class="st0" d="M68.16,27.22c0,0.13-0.11,0.23-0.25,0.23c-0.14,0-0.25-0.1-0.25-0.23c0-0.13,0.11-0.23,0.25-0.23
			C68.05,26.99,68.16,27.09,68.16,27.22z"/>
		<path class="st0" d="M68.62,28.61c0,0.13-0.11,0.23-0.25,0.23c-0.14,0-0.25-0.1-0.25-0.23s0.11-0.23,0.25-0.23
			C68.51,28.38,68.62,28.48,68.62,28.61z"/>
		<path class="st0" d="M79.5,26.58c0,0.13-0.11,0.23-0.25,0.23c-0.14,0-0.25-0.1-0.25-0.23s0.11-0.23,0.25-0.23
			C79.39,26.35,79.5,26.45,79.5,26.58z"/>
		<path class="st0" d="M82.64,22.86c0,0.13-0.11,0.23-0.25,0.23c-0.14,0-0.25-0.1-0.25-0.23s0.11-0.23,0.25-0.23
			C82.52,22.63,82.64,22.74,82.64,22.86z"/>
		<path class="st0" d="M72.51,20.08c0,0.13-0.11,0.23-0.25,0.23c-0.14,0-0.25-0.1-0.25-0.23c0-0.13,0.11-0.23,0.25-0.23
			C72.4,19.85,72.51,19.95,72.51,20.08z"/>
		<path class="st0" d="M76.08,24.33c0,0.13-0.11,0.23-0.25,0.23c-0.14,0-0.25-0.1-0.25-0.23s0.11-0.23,0.25-0.23
			C75.97,24.1,76.08,24.21,76.08,24.33z"/>
		<path class="st0" d="M76.93,29.01c0,0.13-0.11,0.23-0.25,0.23c-0.13,0-0.25-0.1-0.25-0.23s0.11-0.23,0.25-0.23
			C76.82,28.77,76.93,28.88,76.93,29.01z"/>
		<path class="st0" d="M79.62,31.47c0,0.13-0.11,0.23-0.25,0.23c-0.14,0-0.25-0.1-0.25-0.23c0-0.13,0.11-0.23,0.25-0.23
			C79.5,31.24,79.62,31.35,79.62,31.47z"/>
		<path class="st0" d="M59.58,29.66c0,0.13-0.11,0.23-0.25,0.23s-0.25-0.1-0.25-0.23s0.11-0.23,0.25-0.23S59.58,29.53,59.58,29.66z"
			/>
		<path class="st0" d="M66.53,29.69c0,0.13-0.11,0.23-0.25,0.23c-0.14,0-0.25-0.1-0.25-0.23s0.11-0.23,0.25-0.23
			C66.42,29.46,66.53,29.57,66.53,29.69z"/>
		<path class="st0" d="M83.8,28.63c0,0.13-0.11,0.23-0.25,0.23c-0.14,0-0.25-0.1-0.25-0.23c0-0.13,0.11-0.23,0.25-0.23
			C83.68,28.4,83.8,28.5,83.8,28.63z"/>
		<path class="st0" d="M89.13,21.98c0,0.13-0.11,0.23-0.25,0.23c-0.14,0-0.25-0.1-0.25-0.23c0-0.13,0.11-0.23,0.25-0.23
			C89.02,21.74,89.13,21.85,89.13,21.98z"/>
		<path class="st0" d="M75.52,27.47c0,0.13-0.11,0.23-0.25,0.23c-0.14,0-0.25-0.1-0.25-0.23c0-0.13,0.11-0.23,0.25-0.23
			C75.41,27.24,75.52,27.34,75.52,27.47z"/>
		<path class="st0" d="M75.97,18.75c0,0.13-0.11,0.23-0.25,0.23c-0.14,0-0.25-0.1-0.25-0.23s0.11-0.23,0.25-0.23
			C75.86,18.52,75.97,18.62,75.97,18.75z"/>
		<path class="st0" d="M81.49,16.23c0,0.13-0.11,0.23-0.25,0.23c-0.14,0-0.25-0.1-0.25-0.23S81.1,16,81.23,16
			C81.37,16,81.49,16.1,81.49,16.23z"/>
		<path class="st0" d="M85.89,15.55c0,0.13-0.11,0.23-0.25,0.23c-0.13,0-0.25-0.1-0.25-0.23s0.11-0.23,0.25-0.23
			C85.78,15.31,85.89,15.42,85.89,15.55z"/>
		<path class="st0" d="M89.06,15.55c0,0.13-0.11,0.23-0.25,0.23s-0.25-0.1-0.25-0.23s0.11-0.23,0.25-0.23S89.06,15.42,89.06,15.55z"
			/>
		<path class="st0" d="M89,16.65c0,0.13-0.11,0.23-0.25,0.23s-0.25-0.1-0.25-0.23c0-0.13,0.11-0.23,0.25-0.23S89,16.52,89,16.65z"/>
		<path class="st0" d="M85.06,17.98c0,0.13-0.11,0.23-0.25,0.23c-0.14,0-0.25-0.1-0.25-0.23c0-0.13,0.11-0.23,0.25-0.23
			C84.95,17.75,85.06,17.86,85.06,17.98z"/>
		<path class="st0" d="M80.32,20.08c0,0.13-0.11,0.23-0.25,0.23c-0.14,0-0.25-0.1-0.25-0.23c0-0.13,0.11-0.23,0.25-0.23
			C80.21,19.85,80.32,19.95,80.32,20.08z"/>
		<path class="st0" d="M62.71,20.85c0,0.13-0.11,0.23-0.25,0.23c-0.14,0-0.25-0.1-0.25-0.23c0-0.13,0.11-0.23,0.25-0.23
			C62.6,20.62,62.71,20.72,62.71,20.85z"/>
		<path class="st0" d="M65.53,22.4c0,0.18-0.16,0.33-0.36,0.33c-0.2,0-0.36-0.15-0.36-0.33c0-0.18,0.16-0.33,0.36-0.33
			C65.37,22.07,65.53,22.22,65.53,22.4z"/>
		<path class="st0" d="M75.36,20.98c0,0.18-0.16,0.33-0.35,0.33c-0.2,0-0.36-0.15-0.36-0.33c0-0.18,0.16-0.33,0.36-0.33
			C75.2,20.65,75.36,20.8,75.36,20.98z"/>
		<path class="st0" d="M82.38,20.99c0,0.18-0.16,0.33-0.36,0.33c-0.2,0-0.35-0.15-0.35-0.33c0-0.18,0.16-0.33,0.35-0.33
			C82.22,20.66,82.38,20.81,82.38,20.99z"/>
		<path class="st0" d="M61.79,25.36c0,0.18-0.16,0.33-0.35,0.33c-0.2,0-0.36-0.15-0.36-0.33c0-0.18,0.16-0.33,0.36-0.33
			C61.63,25.03,61.79,25.18,61.79,25.36z"/>
		<polygon class="st0" points="18.02,13.93 21.16,13.93 21.16,13.75 18.09,13.75 15.51,11.3 9.75,11.3 8.65,10.28 3.65,10.28 
			0.71,13 0.84,13.13 3.73,10.46 8.57,10.46 9.67,11.48 15.43,11.48 		"/>
		<polygon class="st0" points="0.9,17.63 6.17,17.63 9.88,14.2 13.65,14.2 17.17,17.47 29.36,17.47 32.21,14.83 36.24,14.83 
			36.24,14.65 32.13,14.65 29.28,17.29 17.25,17.29 13.73,14.02 9.8,14.02 6.09,17.45 0.9,17.45 		"/>
		<polygon class="st0" points="28.89,20.02 37.16,20.02 38.61,18.67 44.59,18.67 44.59,18.49 38.53,18.49 37.08,19.83 28.97,19.83 
			24,15.24 16.41,15.24 12.96,12.04 3.78,12.04 2.24,13.46 0.71,13.46 0.71,13.64 2.32,13.64 3.86,12.22 12.88,12.22 16.33,15.42 
			23.92,15.42 		"/>
		<polygon class="st0" points="11.58,30.8 14.95,30.8 18.42,27.59 22.82,27.59 32.59,18.55 36.18,18.55 36.18,18.37 32.51,18.37 
			22.74,27.42 18.34,27.42 14.88,30.62 11.58,30.62 		"/>
		<polygon class="st0" points="7.43,20.77 12.34,20.77 14.32,18.94 25.11,18.94 25.11,18.58 14.16,18.58 12.18,20.41 7.58,20.41 
			5.08,18.08 0.71,18.08 0.71,18.44 4.92,18.44 		"/>
		<polygon class="st0" points="16.01,24.12 23.82,24.12 23.82,23.94 16.09,23.94 13.66,21.69 5.22,21.69 3.65,20.24 0.39,20.24 
			0.39,20.42 3.57,20.42 5.13,21.87 13.58,21.87 		"/>
		<polygon class="st0" points="10.47,27.44 13.92,27.44 21.31,20.6 26.08,20.6 29.63,23.88 41.24,23.88 43.22,25.71 46.01,25.71 
			46.01,25.35 43.38,25.35 41.4,23.52 29.79,23.52 26.24,20.24 21.15,20.24 13.76,27.08 10.63,27.08 9.05,25.61 0.45,25.61 
			0.45,25.97 8.89,25.97 		"/>
		<polygon class="st0" points="14.93,26.58 27.68,26.58 33.54,21.15 40.32,21.15 40.32,20.79 33.38,20.79 27.52,26.22 15.1,26.22 
			12.36,23.68 0.71,23.68 0.71,24.05 12.2,24.05 		"/>
		<polygon class="st0" points="41.7,27.84 46.01,27.84 46.01,27.66 41.78,27.66 38.9,24.99 30.61,24.99 30.61,25.17 38.82,25.17 		
			"/>
		<polygon class="st0" points="3.52,35.2 18.35,35.2 22.56,31.31 30.13,31.31 33.11,28.56 36.11,28.56 36.11,28.38 33.03,28.38 
			30.05,31.13 22.48,31.13 18.28,35.02 3.6,35.02 0.94,32.57 0,32.57 0,32.75 0.86,32.75 		"/>
		<polygon class="st0" points="5.98,40 18.48,40 19.78,38.8 26.58,38.8 35.44,30.59 47.4,30.59 49.18,32.25 49.32,32.12 
			47.48,30.41 35.36,30.41 26.49,38.62 19.7,38.62 18.41,39.82 6.06,39.82 5.09,38.92 0.19,38.92 0.19,39.1 5.01,39.1 		"/>
		<polygon class="st0" points="28.37,32.39 38.64,32.39 38.64,32.21 28.45,32.21 24.7,28.73 11.24,28.73 6.96,24.78 0.39,24.78 
			0.39,24.96 6.88,24.96 11.15,28.91 24.62,28.91 		"/>
		<path class="st0" d="M20.77,13.84c0,0.2,0.17,0.36,0.39,0.36c0.22,0,0.39-0.16,0.39-0.36c0-0.2-0.17-0.36-0.39-0.36
			C20.95,13.49,20.77,13.64,20.77,13.84z"/>
		<path class="st0" d="M35.85,14.77c0,0.2,0.18,0.36,0.39,0.36c0.21,0,0.39-0.16,0.39-0.36c0-0.2-0.17-0.36-0.39-0.36
			C36.03,14.41,35.85,14.57,35.85,14.77z"/>
		<path class="st0" d="M35.72,18.55c0,0.2,0.18,0.36,0.39,0.36c0.22,0,0.39-0.16,0.39-0.36c0-0.2-0.18-0.36-0.39-0.36
			C35.9,18.19,35.72,18.35,35.72,18.55z"/>
		<path class="st0" d="M45.56,27.75c0,0.2,0.17,0.36,0.39,0.36c0.22,0,0.39-0.16,0.39-0.36c0-0.2-0.18-0.36-0.39-0.36
			C45.74,27.39,45.56,27.55,45.56,27.75z"/>
		<ellipse class="st0" cx="30.61" cy="25.08" rx="0.39" ry="0.36"/>
		<path class="st0" d="M35.66,28.44c0,0.2,0.17,0.36,0.39,0.36c0.22,0,0.39-0.16,0.39-0.36c0-0.2-0.17-0.36-0.39-0.36
			C35.83,28.07,35.66,28.24,35.66,28.44z"/>
		<path class="st0" d="M34.95,30.59c0,0.2,0.17,0.36,0.39,0.36c0.22,0,0.39-0.16,0.39-0.36c0-0.2-0.17-0.36-0.39-0.36
			C35.12,30.23,34.95,30.39,34.95,30.59z"/>
		<path class="st0" d="M18.11,27.45c0,0.2,0.18,0.36,0.39,0.36c0.21,0,0.39-0.16,0.39-0.36c0-0.2-0.17-0.36-0.39-0.36
			C18.28,27.09,18.11,27.25,18.11,27.45z"/>
		<path class="st0" d="M13.25,21.69c0,0.2,0.18,0.36,0.39,0.36c0.22,0,0.39-0.16,0.39-0.36c0-0.2-0.17-0.36-0.39-0.36
			C13.43,21.34,13.25,21.49,13.25,21.69z"/>
		<path class="st0" d="M28.93,17.38c0,0.2,0.17,0.36,0.39,0.36c0.22,0,0.39-0.16,0.39-0.36c0-0.2-0.17-0.36-0.39-0.36
			C29.1,17.02,28.93,17.18,28.93,17.38z"/>
		<path class="st0" d="M23.4,23.97c0,0.2,0.17,0.36,0.38,0.36c0.22,0,0.39-0.16,0.39-0.36c0-0.2-0.17-0.36-0.39-0.36
			C23.57,23.61,23.4,23.77,23.4,23.97z"/>
		<path class="st0" d="M22.09,31.21c0,0.2,0.17,0.36,0.39,0.36c0.21,0,0.39-0.16,0.39-0.36c0-0.2-0.18-0.36-0.39-0.36
			C22.26,30.85,22.09,31.01,22.09,31.21z"/>
		<path class="st0" d="M17.93,35.02c0,0.2,0.18,0.36,0.39,0.36c0.22,0,0.39-0.16,0.39-0.36c0-0.2-0.18-0.36-0.39-0.36
			C18.1,34.67,17.93,34.83,17.93,35.02z"/>
		<path class="st0" d="M48.96,32.21c0,0.2,0.17,0.36,0.39,0.36c0.22,0,0.39-0.16,0.39-0.36c0-0.2-0.18-0.36-0.39-0.36
			C49.13,31.85,48.96,32.01,48.96,32.21z"/>
		<path class="st0" d="M38.19,32.27c0,0.2,0.17,0.36,0.39,0.36c0.22,0,0.39-0.16,0.39-0.36c0-0.2-0.17-0.36-0.39-0.36
			C38.36,31.91,38.19,32.07,38.19,32.27z"/>
		<path class="st0" d="M11.45,30.62c0,0.2,0.18,0.36,0.39,0.36s0.39-0.16,0.39-0.36c0-0.19-0.17-0.36-0.39-0.36
			S11.45,30.43,11.45,30.62z"/>
		<path class="st0" d="M3.19,20.32c0,0.2,0.17,0.36,0.39,0.36c0.22,0,0.39-0.16,0.39-0.36c0-0.2-0.17-0.36-0.39-0.36
			C3.36,19.96,3.19,20.12,3.19,20.32z"/>
		<path class="st0" d="M24.27,28.83c0,0.2,0.17,0.36,0.39,0.36c0.22,0,0.39-0.16,0.39-0.36c0-0.2-0.18-0.36-0.39-0.36
			C24.44,28.47,24.27,28.63,24.27,28.83z"/>
		<path class="st0" d="M23.57,15.32c0,0.2,0.18,0.36,0.39,0.36c0.22,0,0.39-0.16,0.39-0.36c0-0.2-0.17-0.36-0.39-0.36
			C23.75,14.97,23.57,15.13,23.57,15.32z"/>
		<path class="st0" d="M15.03,11.42c0,0.2,0.17,0.36,0.39,0.36c0.22,0,0.39-0.16,0.39-0.36c0-0.2-0.18-0.36-0.39-0.36
			C15.2,11.06,15.03,11.22,15.03,11.42z"/>
		<path class="st0" d="M8.21,10.36c0,0.2,0.18,0.36,0.39,0.36c0.21,0,0.39-0.16,0.39-0.36c0-0.2-0.18-0.36-0.39-0.36
			C8.38,10,8.21,10.16,8.21,10.36z"/>
		<path class="st0" d="M3.3,10.36c0,0.2,0.18,0.36,0.39,0.36c0.22,0,0.39-0.16,0.39-0.36c0-0.2-0.17-0.36-0.39-0.36
			C3.47,10,3.3,10.16,3.3,10.36z"/>
		<path class="st0" d="M3.39,12.07c0,0.2,0.18,0.36,0.39,0.36c0.22,0,0.39-0.16,0.39-0.36c0-0.2-0.18-0.36-0.39-0.36
			C3.57,11.71,3.39,11.87,3.39,12.07z"/>
		<path class="st0" d="M9.49,14.14c0,0.2,0.17,0.36,0.39,0.36c0.22,0,0.39-0.16,0.39-0.36c0-0.2-0.17-0.36-0.39-0.36
			C9.66,13.77,9.49,13.94,9.49,14.14z"/>
		<path class="st0" d="M16.83,17.38c0,0.2,0.17,0.36,0.39,0.36c0.22,0,0.39-0.16,0.39-0.36c0-0.2-0.18-0.36-0.39-0.36
			C17,17.02,16.83,17.18,16.83,17.38z"/>
		<path class="st0" d="M44.1,18.58c0,0.2,0.18,0.36,0.39,0.36c0.22,0,0.39-0.16,0.39-0.36c0-0.2-0.17-0.36-0.39-0.36
			C44.28,18.22,44.1,18.38,44.1,18.58z"/>
		<path class="st0" d="M39.74,20.97c0,0.28,0.24,0.51,0.55,0.51c0.3,0,0.55-0.23,0.55-0.51c0-0.28-0.24-0.51-0.55-0.51
			C39.98,20.46,39.74,20.69,39.74,20.97z"/>
		<path class="st0" d="M24.52,18.77c0,0.28,0.25,0.51,0.55,0.51s0.55-0.23,0.55-0.51c0-0.28-0.25-0.51-0.55-0.51
			S24.52,18.49,24.52,18.77z"/>
		<path class="st0" d="M13.65,18.79c0,0.28,0.24,0.51,0.55,0.51c0.3,0,0.55-0.23,0.55-0.51c0-0.28-0.24-0.51-0.55-0.51
			C13.89,18.28,13.65,18.51,13.65,18.79z"/>
		<path class="st0" d="M45.53,25.56c0,0.28,0.25,0.51,0.55,0.51s0.55-0.22,0.55-0.51c0-0.28-0.25-0.51-0.55-0.51
			S45.53,25.28,45.53,25.56z"/>
		<polygon class="st0" points="19.8,16.81 22.13,16.81 22.13,16.68 19.86,16.68 17.95,14.86 13.68,14.86 12.87,14.11 9.17,14.11 
			7,16.13 7.1,16.22 9.23,14.25 12.81,14.25 13.63,15 17.89,15 		"/>
		<polygon class="st0" points="7.15,19.55 11.04,19.55 13.78,17.02 16.57,17.02 19.18,19.43 28.19,19.43 30.3,17.48 33.28,17.48 
			33.28,17.35 30.23,17.35 28.13,19.3 19.24,19.3 16.63,16.88 13.72,16.88 10.98,19.42 7.15,19.42 		"/>
		<polygon class="st0" points="27.84,21.31 33.96,21.31 35.03,20.32 39.45,20.32 39.45,20.18 34.97,20.18 33.9,21.18 27.9,21.18 
			24.23,17.78 18.62,17.78 16.06,15.41 9.27,15.41 8.13,16.47 7,16.47 7,16.6 8.19,16.6 9.33,15.55 16,15.55 18.56,17.91 
			24.17,17.91 		"/>
		<polygon class="st0" points="15.04,29.29 17.53,29.29 20.1,26.92 23.35,26.92 30.58,20.23 33.23,20.23 33.23,20.09 30.52,20.09 
			23.3,26.79 20.04,26.79 17.48,29.16 15.04,29.16 		"/>
		<polygon class="st0" points="11.97,21.87 15.61,21.87 17.06,20.52 25.05,20.52 25.05,20.25 16.95,20.25 15.49,21.6 12.09,21.6 
			10.23,19.88 7,19.88 7,20.15 10.11,20.15 		"/>
		<polygon class="st0" points="18.32,24.35 24.09,24.35 24.09,24.22 18.38,24.22 16.58,22.55 10.33,22.55 9.17,21.48 6.76,21.48 
			6.76,21.61 9.11,21.61 10.28,22.69 16.52,22.69 		"/>
		<polygon class="st0" points="14.22,26.8 16.77,26.8 22.23,21.75 25.77,21.75 28.39,24.17 36.98,24.17 38.44,25.52 40.51,25.52 
			40.51,25.26 38.56,25.26 37.1,23.91 28.5,23.91 25.89,21.48 22.12,21.48 16.65,26.54 14.34,26.54 13.17,25.45 6.81,25.45 
			6.81,25.72 13.05,25.72 		"/>
		<polygon class="st0" points="17.52,26.17 26.95,26.17 31.28,22.16 36.3,22.16 36.3,21.89 31.16,21.89 26.83,25.9 17.64,25.9 
			15.62,24.03 7,24.03 7,24.29 15.5,24.29 		"/>
		<polygon class="st0" points="37.32,27.1 40.51,27.1 40.51,26.96 37.38,26.96 35.25,24.99 29.12,24.99 29.12,25.12 35.19,25.12 		
			"/>
		<polygon class="st0" points="9.08,32.55 20.05,32.55 23.16,29.67 28.76,29.67 30.96,27.63 33.19,27.63 33.19,27.5 30.9,27.5 
			28.71,29.53 23.1,29.53 19.99,32.41 9.14,32.41 7.18,30.6 6.48,30.6 6.48,30.73 7.12,30.73 		"/>
		<polygon class="st0" points="10.9,36.09 20.15,36.09 21.1,35.21 26.13,35.21 32.69,29.14 41.53,29.14 42.85,30.36 42.95,30.26 
			41.59,29 32.63,29 26.07,35.07 21.04,35.07 20.09,35.96 10.96,35.96 10.24,35.3 6.62,35.3 6.62,35.43 10.18,35.43 		"/>
		<polygon class="st0" points="27.46,30.47 35.05,30.47 35.05,30.33 27.52,30.33 24.74,27.76 14.79,27.76 11.63,24.84 6.76,24.84 
			6.76,24.97 11.57,24.97 14.72,27.9 24.68,27.9 		"/>
		<path class="st0" d="M21.84,16.75c0,0.15,0.13,0.27,0.29,0.27c0.16,0,0.29-0.12,0.29-0.27s-0.13-0.27-0.29-0.27
			C21.97,16.48,21.84,16.6,21.84,16.75z"/>
		<path class="st0" d="M32.99,17.43c0,0.15,0.13,0.27,0.29,0.27c0.16,0,0.29-0.12,0.29-0.27c0-0.15-0.13-0.27-0.29-0.27
			C33.12,17.17,32.99,17.29,32.99,17.43z"/>
		<path class="st0" d="M32.9,20.23c0,0.15,0.13,0.27,0.29,0.27c0.16,0,0.29-0.12,0.29-0.27s-0.13-0.27-0.29-0.27
			C33.03,19.96,32.9,20.08,32.9,20.23z"/>
		<path class="st0" d="M40.17,27.03c0,0.15,0.13,0.27,0.29,0.27c0.16,0,0.29-0.12,0.29-0.27c0-0.15-0.13-0.27-0.29-0.27
			C40.3,26.77,40.17,26.88,40.17,27.03z"/>
		<path class="st0" d="M28.83,25.06c0,0.15,0.13,0.27,0.29,0.27c0.16,0,0.29-0.12,0.29-0.27c0-0.15-0.13-0.27-0.29-0.27
			C28.96,24.79,28.83,24.91,28.83,25.06z"/>
		<path class="st0" d="M32.85,27.54c0,0.15,0.13,0.26,0.29,0.26c0.16,0,0.29-0.12,0.29-0.26c0-0.15-0.13-0.27-0.29-0.27
			C32.98,27.27,32.85,27.39,32.85,27.54z"/>
		<path class="st0" d="M32.32,29.14c0,0.15,0.13,0.27,0.29,0.27c0.16,0,0.29-0.12,0.29-0.27c0-0.15-0.13-0.27-0.29-0.27
			C32.45,28.87,32.32,28.99,32.32,29.14z"/>
		<path class="st0" d="M19.87,26.81c0,0.15,0.13,0.27,0.29,0.27c0.16,0,0.28-0.12,0.28-0.27c0-0.15-0.13-0.27-0.28-0.27
			C19.99,26.54,19.87,26.66,19.87,26.81z"/>
		<path class="st0" d="M16.27,22.55c0,0.15,0.13,0.27,0.29,0.27c0.16,0,0.29-0.12,0.29-0.27c0-0.15-0.13-0.26-0.29-0.26
			C16.4,22.29,16.27,22.41,16.27,22.55z"/>
		<path class="st0" d="M27.87,19.36c0,0.15,0.13,0.27,0.28,0.27c0.16,0,0.29-0.12,0.29-0.27c0-0.15-0.13-0.27-0.29-0.27
			C28,19.1,27.87,19.22,27.87,19.36z"/>
		<path class="st0" d="M23.78,24.24c0,0.15,0.13,0.27,0.29,0.27c0.16,0,0.28-0.12,0.28-0.27c0-0.15-0.13-0.27-0.28-0.27
			C23.91,23.97,23.78,24.09,23.78,24.24z"/>
		<path class="st0" d="M22.81,29.59c0,0.15,0.13,0.27,0.28,0.27c0.16,0,0.29-0.12,0.29-0.27c0-0.15-0.13-0.27-0.29-0.27
			C22.94,29.32,22.81,29.44,22.81,29.59z"/>
		<path class="st0" d="M19.73,32.41c0,0.15,0.13,0.27,0.29,0.27c0.16,0,0.29-0.12,0.29-0.27c0-0.15-0.13-0.26-0.29-0.26
			C19.86,32.15,19.73,32.27,19.73,32.41z"/>
		<path class="st0" d="M42.69,30.33c0,0.15,0.13,0.26,0.29,0.26c0.16,0,0.29-0.12,0.29-0.26c0-0.15-0.13-0.27-0.29-0.27
			C42.81,30.07,42.69,30.19,42.69,30.33z"/>
		<path class="st0" d="M34.72,30.38c0,0.15,0.13,0.26,0.29,0.26c0.16,0,0.29-0.12,0.29-0.26c0-0.15-0.13-0.27-0.29-0.27
			C34.85,30.11,34.72,30.23,34.72,30.38z"/>
		<path class="st0" d="M14.95,29.16c0,0.15,0.13,0.27,0.29,0.27c0.16,0,0.29-0.12,0.29-0.27c0-0.14-0.13-0.26-0.29-0.26
			C15.08,28.89,14.95,29.01,14.95,29.16z"/>
		<path class="st0" d="M8.83,21.54c0,0.15,0.13,0.26,0.29,0.26c0.16,0,0.29-0.12,0.29-0.26s-0.13-0.27-0.29-0.27
			C8.96,21.27,8.83,21.39,8.83,21.54z"/>
		<path class="st0" d="M24.42,27.83c0,0.15,0.13,0.27,0.29,0.27c0.16,0,0.29-0.12,0.29-0.27c0-0.15-0.13-0.27-0.29-0.27
			C24.55,27.57,24.42,27.68,24.42,27.83z"/>
		<path class="st0" d="M23.91,17.84c0,0.15,0.13,0.27,0.29,0.27c0.16,0,0.29-0.12,0.29-0.27s-0.13-0.27-0.29-0.27
			C24.04,17.58,23.91,17.7,23.91,17.84z"/>
		<path class="st0" d="M17.59,14.95c0,0.15,0.13,0.27,0.29,0.27c0.16,0,0.29-0.12,0.29-0.27c0-0.15-0.13-0.27-0.29-0.27
			C17.72,14.69,17.59,14.81,17.59,14.95z"/>
		<path class="st0" d="M12.55,14.17c0,0.15,0.13,0.27,0.29,0.27c0.16,0,0.29-0.12,0.29-0.27s-0.13-0.27-0.29-0.27
			C12.68,13.91,12.55,14.03,12.55,14.17z"/>
		<path class="st0" d="M8.92,14.17c0,0.15,0.13,0.27,0.29,0.27c0.16,0,0.29-0.12,0.29-0.27s-0.13-0.27-0.29-0.27
			C9.05,13.91,8.92,14.03,8.92,14.17z"/>
		<path class="st0" d="M8.99,15.44c0,0.15,0.13,0.27,0.29,0.27c0.16,0,0.29-0.12,0.29-0.27c0-0.15-0.13-0.27-0.29-0.27
			C9.12,15.17,8.99,15.29,8.99,15.44z"/>
		<path class="st0" d="M13.49,16.96c0,0.15,0.13,0.27,0.29,0.27c0.16,0,0.28-0.12,0.28-0.27s-0.13-0.27-0.28-0.27
			C13.62,16.7,13.49,16.82,13.49,16.96z"/>
		<path class="st0" d="M18.92,19.36c0,0.15,0.13,0.27,0.28,0.27c0.16,0,0.29-0.12,0.29-0.27c0-0.15-0.13-0.27-0.29-0.27
			C19.05,19.1,18.92,19.22,18.92,19.36z"/>
		<path class="st0" d="M39.1,20.25c0,0.15,0.13,0.27,0.29,0.27s0.29-0.12,0.29-0.27c0-0.15-0.13-0.27-0.29-0.27
			S39.1,20.1,39.1,20.25z"/>
		<path class="st0" d="M35.87,22.02c0,0.21,0.18,0.38,0.4,0.38c0.23,0,0.41-0.17,0.41-0.38c0-0.21-0.18-0.38-0.41-0.38
			C36.05,21.65,35.87,21.81,35.87,22.02z"/>
		<path class="st0" d="M24.61,20.39c0,0.21,0.18,0.38,0.41,0.38c0.22,0,0.41-0.17,0.41-0.38c0-0.21-0.19-0.37-0.41-0.37
			C24.79,20.02,24.61,20.19,24.61,20.39z"/>
		<path class="st0" d="M16.57,20.41c0,0.21,0.18,0.38,0.41,0.38c0.22,0,0.4-0.17,0.4-0.38c0-0.21-0.18-0.38-0.4-0.38
			C16.75,20.03,16.57,20.2,16.57,20.41z"/>
		<path class="st0" d="M40.15,25.41c0,0.21,0.18,0.37,0.41,0.37c0.23,0,0.41-0.17,0.41-0.37c0-0.21-0.18-0.38-0.41-0.38
			C40.33,25.04,40.15,25.2,40.15,25.41z"/>
		<polygon class="st0" points="20.44,17.85 22.47,17.85 22.47,17.74 20.49,17.74 18.82,16.15 15.1,16.15 14.39,15.49 11.16,15.49 
			9.27,17.25 9.35,17.33 11.22,15.61 14.34,15.61 15.05,16.27 18.77,16.27 		"/>
		<polygon class="st0" points="9.39,20.24 12.79,20.24 15.19,18.03 17.62,18.03 19.9,20.14 27.77,20.14 29.61,18.43 32.21,18.43 
			32.21,18.32 29.55,18.32 27.71,20.02 19.95,20.02 17.67,17.91 15.14,17.91 12.74,20.13 9.39,20.13 		"/>
		<polygon class="st0" points="27.47,21.78 32.8,21.78 33.74,20.91 37.6,20.91 37.6,20.8 33.69,20.8 32.75,21.66 27.52,21.66 
			24.31,18.7 19.41,18.7 17.18,16.63 11.25,16.63 10.25,17.55 9.27,17.55 9.27,17.67 10.3,17.67 11.3,16.75 17.12,16.75 
			19.36,18.81 24.26,18.81 		"/>
		<polygon class="st0" points="16.29,28.75 18.47,28.75 20.71,26.68 23.55,26.68 29.86,20.83 32.17,20.83 32.17,20.72 29.8,20.72 
			23.49,26.56 20.65,26.56 18.42,28.63 16.29,28.63 		"/>
		<polygon class="st0" points="13.6,22.27 16.78,22.27 18.05,21.09 25.03,21.09 25.03,20.85 17.95,20.85 16.67,22.03 13.71,22.03 
			12.09,20.53 9.27,20.53 9.27,20.76 11.99,20.76 		"/>
		<polygon class="st0" points="19.15,24.43 24.19,24.43 24.19,24.32 19.2,24.32 17.63,22.86 12.18,22.86 11.16,21.93 9.06,21.93 
			9.06,22.04 11.11,22.04 12.12,22.98 17.58,22.98 		"/>
		<polygon class="st0" points="15.57,26.57 17.8,26.57 22.57,22.16 25.65,22.16 27.94,24.28 35.44,24.28 36.72,25.46 38.52,25.46 
			38.52,25.22 36.82,25.22 35.55,24.04 28.05,24.04 25.76,21.93 22.47,21.93 17.7,26.34 15.67,26.34 14.65,25.4 9.1,25.4 9.1,25.63 
			14.55,25.63 		"/>
		<polygon class="st0" points="18.45,26.02 26.69,26.02 30.47,22.52 34.85,22.52 34.85,22.28 30.36,22.28 26.58,25.79 18.56,25.79 
			16.79,24.15 9.27,24.15 9.27,24.38 16.69,24.38 		"/>
		<polygon class="st0" points="35.74,26.83 38.52,26.83 38.52,26.71 35.79,26.71 33.93,24.99 28.58,24.99 28.58,25.11 33.88,25.11 
					"/>
		<polygon class="st0" points="11.08,31.59 20.66,31.59 23.38,29.07 28.27,29.07 30.19,27.3 32.13,27.3 32.13,27.18 30.14,27.18 
			28.22,28.96 23.33,28.96 20.61,31.47 11.13,31.47 9.42,29.89 8.81,29.89 8.81,30 9.37,30 		"/>
		<polygon class="st0" points="12.67,34.69 20.75,34.69 21.58,33.91 25.97,33.91 31.7,28.61 39.42,28.61 40.57,29.68 40.66,29.59 
			39.47,28.49 31.64,28.49 25.92,33.8 21.53,33.8 20.69,34.57 12.72,34.57 12.09,33.99 8.93,33.99 8.93,34.11 12.04,34.11 		"/>
		<polygon class="st0" points="27.13,29.77 33.76,29.77 33.76,29.66 27.18,29.66 24.76,27.41 16.07,27.41 13.31,24.86 9.06,24.86 
			9.06,24.97 13.25,24.97 16.01,27.53 24.71,27.53 		"/>
		<path class="st0" d="M22.23,17.8c0,0.13,0.11,0.23,0.25,0.23c0.14,0,0.25-0.1,0.25-0.23s-0.11-0.23-0.25-0.23
			C22.34,17.56,22.23,17.67,22.23,17.8z"/>
		<path class="st0" d="M31.96,18.39c0,0.13,0.11,0.23,0.25,0.23c0.14,0,0.25-0.1,0.25-0.23c0-0.13-0.11-0.23-0.25-0.23
			C32.07,18.16,31.96,18.27,31.96,18.39z"/>
		<path class="st0" d="M31.88,20.83c0,0.13,0.11,0.23,0.25,0.23c0.14,0,0.25-0.1,0.25-0.23s-0.11-0.23-0.25-0.23
			C31.99,20.6,31.88,20.71,31.88,20.83z"/>
		<path class="st0" d="M38.23,26.77c0,0.13,0.11,0.23,0.25,0.23s0.25-0.1,0.25-0.23c0-0.13-0.11-0.23-0.25-0.23
			S38.23,26.64,38.23,26.77z"/>
		<path class="st0" d="M28.33,25.05c0,0.13,0.11,0.23,0.25,0.23c0.14,0,0.25-0.1,0.25-0.23c0-0.13-0.11-0.23-0.25-0.23
			C28.44,24.82,28.33,24.92,28.33,25.05z"/>
		<path class="st0" d="M31.84,27.22c0,0.13,0.11,0.23,0.25,0.23c0.14,0,0.25-0.1,0.25-0.23c0-0.13-0.11-0.23-0.25-0.23
			C31.95,26.99,31.84,27.09,31.84,27.22z"/>
		<path class="st0" d="M31.38,28.61c0,0.13,0.11,0.23,0.25,0.23c0.14,0,0.25-0.1,0.25-0.23s-0.11-0.23-0.25-0.23
			C31.49,28.38,31.38,28.48,31.38,28.61z"/>
		<path class="st0" d="M20.5,26.58c0,0.13,0.11,0.23,0.25,0.23c0.14,0,0.25-0.1,0.25-0.23s-0.11-0.23-0.25-0.23
			C20.61,26.35,20.5,26.45,20.5,26.58z"/>
		<path class="st0" d="M17.36,22.86c0,0.13,0.11,0.23,0.25,0.23c0.14,0,0.25-0.1,0.25-0.23s-0.12-0.23-0.25-0.23
			C17.48,22.63,17.36,22.74,17.36,22.86z"/>
		<path class="st0" d="M27.49,20.08c0,0.13,0.11,0.23,0.25,0.23c0.14,0,0.25-0.1,0.25-0.23c0-0.13-0.11-0.23-0.25-0.23
			C27.6,19.85,27.49,19.95,27.49,20.08z"/>
		<path class="st0" d="M23.92,24.33c0,0.13,0.11,0.23,0.25,0.23c0.14,0,0.25-0.1,0.25-0.23s-0.11-0.23-0.25-0.23
			C24.03,24.1,23.92,24.21,23.92,24.33z"/>
		<path class="st0" d="M23.07,29.01c0,0.13,0.11,0.23,0.25,0.23c0.13,0,0.25-0.1,0.25-0.23s-0.11-0.23-0.25-0.23
			C23.18,28.77,23.07,28.88,23.07,29.01z"/>
		<path class="st0" d="M20.38,31.47c0,0.13,0.11,0.23,0.25,0.23c0.14,0,0.25-0.1,0.25-0.23c0-0.13-0.11-0.23-0.25-0.23
			C20.5,31.24,20.38,31.35,20.38,31.47z"/>
		<path class="st0" d="M40.42,29.66c0,0.13,0.11,0.23,0.25,0.23s0.25-0.1,0.25-0.23s-0.11-0.23-0.25-0.23S40.42,29.53,40.42,29.66z"
			/>
		<path class="st0" d="M33.47,29.69c0,0.13,0.11,0.23,0.25,0.23c0.14,0,0.25-0.1,0.25-0.23s-0.11-0.23-0.25-0.23
			C33.58,29.46,33.47,29.57,33.47,29.69z"/>
		<path class="st0" d="M16.2,28.63c0,0.13,0.11,0.23,0.25,0.23c0.14,0,0.25-0.1,0.25-0.23c0-0.13-0.11-0.23-0.25-0.23
			C16.32,28.4,16.2,28.5,16.2,28.63z"/>
		<path class="st0" d="M10.87,21.98c0,0.13,0.11,0.23,0.25,0.23c0.14,0,0.25-0.1,0.25-0.23c0-0.13-0.11-0.23-0.25-0.23
			C10.98,21.74,10.87,21.85,10.87,21.98z"/>
		<path class="st0" d="M24.48,27.47c0,0.13,0.11,0.23,0.25,0.23c0.14,0,0.25-0.1,0.25-0.23c0-0.13-0.11-0.23-0.25-0.23
			C24.59,27.24,24.48,27.34,24.48,27.47z"/>
		<path class="st0" d="M24.03,18.75c0,0.13,0.11,0.23,0.25,0.23c0.14,0,0.25-0.1,0.25-0.23s-0.11-0.23-0.25-0.23
			C24.14,18.52,24.03,18.62,24.03,18.75z"/>
		<path class="st0" d="M18.51,16.23c0,0.13,0.11,0.23,0.25,0.23c0.14,0,0.25-0.1,0.25-0.23S18.9,16,18.77,16
			C18.63,16,18.51,16.1,18.51,16.23z"/>
		<path class="st0" d="M14.11,15.55c0,0.13,0.11,0.23,0.25,0.23c0.13,0,0.25-0.1,0.25-0.23s-0.11-0.23-0.25-0.23
			C14.22,15.31,14.11,15.42,14.11,15.55z"/>
		<path class="st0" d="M10.94,15.55c0,0.13,0.11,0.23,0.25,0.23c0.14,0,0.25-0.1,0.25-0.23s-0.11-0.23-0.25-0.23
			C11.05,15.31,10.94,15.42,10.94,15.55z"/>
		<path class="st0" d="M11,16.65c0,0.13,0.11,0.23,0.25,0.23s0.25-0.1,0.25-0.23c0-0.13-0.11-0.23-0.25-0.23S11,16.52,11,16.65z"/>
		<path class="st0" d="M14.94,17.98c0,0.13,0.11,0.23,0.25,0.23s0.25-0.1,0.25-0.23c0-0.13-0.11-0.23-0.25-0.23
			S14.94,17.86,14.94,17.98z"/>
		<path class="st0" d="M19.68,20.08c0,0.13,0.11,0.23,0.25,0.23c0.14,0,0.25-0.1,0.25-0.23c0-0.13-0.11-0.23-0.25-0.23
			C19.79,19.85,19.68,19.95,19.68,20.08z"/>
		<path class="st0" d="M37.29,20.85c0,0.13,0.11,0.23,0.25,0.23c0.14,0,0.25-0.1,0.25-0.23c0-0.13-0.11-0.23-0.25-0.23
			C37.4,20.62,37.29,20.72,37.29,20.85z"/>
		<path class="st0" d="M34.47,22.4c0,0.18,0.16,0.33,0.36,0.33c0.2,0,0.36-0.15,0.36-0.33c0-0.18-0.16-0.33-0.36-0.33
			C34.63,22.07,34.47,22.22,34.47,22.4z"/>
		<path class="st0" d="M24.64,20.98c0,0.18,0.16,0.33,0.35,0.33c0.2,0,0.36-0.15,0.36-0.33c0-0.18-0.16-0.33-0.36-0.33
			C24.8,20.65,24.64,20.8,24.64,20.98z"/>
		<path class="st0" d="M17.62,20.99c0,0.18,0.16,0.33,0.36,0.33c0.2,0,0.35-0.15,0.35-0.33c0-0.18-0.16-0.33-0.35-0.33
			C17.78,20.66,17.62,20.81,17.62,20.99z"/>
		<path class="st0" d="M38.21,25.36c0,0.18,0.16,0.33,0.35,0.33c0.2,0,0.36-0.15,0.36-0.33c0-0.18-0.16-0.33-0.36-0.33
			C38.37,25.03,38.21,25.18,38.21,25.36z"/>
	</g>
</g>
</svg>
