<?xml version="1.0" encoding="utf-8"?>
<!-- Generator: Adobe Illustrator 25.2.3, SVG Export Plug-In . SVG Version: 6.00 Build 0)  -->
<svg version="1.1" id="Capa_1" xmlns="http://www.w3.org/2000/svg" xmlns:xlink="http://www.w3.org/1999/xlink" x="0px" y="0px"
	 viewBox="0 0 100 50" style="enable-background:new 0 0 100 50;" xml:space="preserve">
<style type="text/css">
	.st0{fill:#1CA18D;}
</style>
<g>
	<polygon class="st0" points="100.12,11.61 96.66,11.61 96.66,11.42 100.03,11.42 102.88,8.71 109.21,8.71 110.43,7.59 115.93,7.59 
		119.16,10.59 119.01,10.73 115.83,7.79 110.51,7.79 109.3,8.91 102.97,8.91 	"/>
	<polygon class="st0" points="118.94,15.68 113.15,15.68 109.07,11.91 104.92,11.91 101.04,15.5 87.64,15.5 84.51,12.6 80.07,12.6 
		80.07,12.4 84.6,12.4 87.73,15.3 100.96,15.3 104.84,11.71 109.16,11.71 113.24,15.49 118.94,15.49 	"/>
	<polygon class="st0" points="88.16,18.3 79.06,18.3 77.46,16.82 70.89,16.82 70.89,16.62 77.55,16.62 79.15,18.11 88.07,18.11 
		93.53,13.05 101.88,13.05 105.68,9.53 115.78,9.53 117.48,11.1 119.15,11.1 119.15,11.3 117.39,11.3 115.69,9.73 105.77,9.73 
		101.97,13.25 93.62,13.25 	"/>
	<polygon class="st0" points="107.19,30.17 103.49,30.17 99.68,26.64 94.83,26.64 84.08,16.69 80.14,16.69 80.14,16.49 84.17,16.49 
		94.92,26.44 99.76,26.44 103.57,29.97 107.19,29.97 	"/>
	<polygon class="st0" points="111.77,19.13 106.36,19.13 104.19,17.12 92.31,17.12 92.31,16.72 104.36,16.72 106.54,18.73 
		111.59,18.73 114.35,16.18 119.15,16.18 119.15,16.57 114.53,16.57 	"/>
	<polygon class="st0" points="102.32,22.82 93.74,22.82 93.74,22.62 102.24,22.62 104.91,20.15 114.2,20.15 115.93,18.55 
		119.51,18.55 119.51,18.75 116.01,18.75 114.29,20.35 105,20.35 	"/>
	<polygon class="st0" points="108.42,26.47 104.62,26.47 96.5,18.95 91.24,18.95 87.35,22.56 74.57,22.56 72.4,24.57 69.32,24.57 
		69.32,24.17 72.22,24.17 74.39,22.16 87.17,22.16 91.07,18.55 96.67,18.55 104.8,26.07 108.24,26.07 109.98,24.46 119.44,24.46 
		119.44,24.86 110.16,24.86 	"/>
	<polygon class="st0" points="103.51,25.52 89.48,25.52 83.04,19.56 75.58,19.56 75.58,19.16 83.22,19.16 89.66,25.13 103.33,25.13 
		106.34,22.34 119.15,22.34 119.15,22.74 106.52,22.74 	"/>
	<polygon class="st0" points="74.06,26.91 69.32,26.91 69.32,26.71 73.98,26.71 77.14,23.77 86.26,23.77 86.26,23.97 77.23,23.97 	
		"/>
	<polygon class="st0" points="116.07,35.01 99.75,35.01 95.12,30.73 86.79,30.73 83.52,27.7 80.21,27.7 80.21,27.5 83.6,27.5 
		86.88,30.53 95.21,30.53 99.83,34.81 115.98,34.81 118.9,32.11 119.94,32.11 119.94,32.31 118.99,32.31 	"/>
	<polygon class="st0" points="113.36,40.29 99.6,40.29 98.18,38.97 90.7,38.97 80.95,29.94 67.8,29.94 65.84,31.76 65.68,31.62 
		67.71,29.74 81.04,29.74 90.79,38.77 98.27,38.77 99.69,40.09 113.27,40.09 114.34,39.1 119.72,39.1 119.72,39.3 114.43,39.3 	"/>
	<polygon class="st0" points="88.73,31.92 77.43,31.92 77.43,31.72 88.64,31.72 92.77,27.89 107.57,27.89 112.28,23.55 
		119.51,23.55 119.51,23.74 112.36,23.74 107.67,28.09 92.86,28.09 	"/>
	<path class="st0" d="M97.08,11.52c0,0.22-0.19,0.4-0.43,0.4c-0.24,0-0.43-0.18-0.43-0.4c0-0.22,0.19-0.39,0.43-0.39
		C96.9,11.12,97.08,11.3,97.08,11.52z"/>
	<path class="st0" d="M80.5,12.53c0,0.22-0.19,0.4-0.43,0.4c-0.23,0-0.43-0.18-0.43-0.4c0-0.22,0.19-0.39,0.43-0.39
		C80.3,12.14,80.5,12.32,80.5,12.53z"/>
	<path class="st0" d="M80.64,16.69c0,0.22-0.19,0.39-0.43,0.39s-0.43-0.18-0.43-0.39c0-0.22,0.19-0.4,0.43-0.4
		S80.64,16.47,80.64,16.69z"/>
	<path class="st0" d="M69.82,26.81c0,0.22-0.19,0.4-0.43,0.4c-0.24,0-0.43-0.18-0.43-0.4c0-0.22,0.19-0.4,0.43-0.4
		C69.63,26.41,69.82,26.59,69.82,26.81z"/>
	<ellipse class="st0" cx="86.26" cy="23.87" rx="0.43" ry="0.4"/>
	<path class="st0" d="M80.71,27.57c0,0.22-0.19,0.39-0.43,0.39c-0.24,0-0.43-0.17-0.43-0.39c0-0.22,0.19-0.4,0.43-0.4
		C80.52,27.17,80.71,27.35,80.71,27.57z"/>
	<path class="st0" d="M81.49,29.94c0,0.22-0.19,0.39-0.43,0.39c-0.24,0-0.43-0.18-0.43-0.39c0-0.22,0.19-0.4,0.43-0.4
		C81.3,29.54,81.49,29.72,81.49,29.94z"/>
	<path class="st0" d="M100.02,26.48c0,0.22-0.19,0.4-0.43,0.4c-0.23,0-0.43-0.18-0.43-0.4c0-0.22,0.19-0.4,0.43-0.4
		C99.83,26.08,100.02,26.26,100.02,26.48z"/>
	<path class="st0" d="M105.36,20.15c0,0.22-0.19,0.4-0.43,0.4c-0.24,0-0.43-0.18-0.43-0.4c0-0.22,0.19-0.39,0.43-0.39
		C105.17,19.76,105.36,19.93,105.36,20.15z"/>
	<path class="st0" d="M88.11,15.4c0,0.22-0.19,0.4-0.43,0.4c-0.24,0-0.43-0.18-0.43-0.4c0-0.22,0.19-0.39,0.43-0.39
		C87.92,15.01,88.11,15.19,88.11,15.4z"/>
	<path class="st0" d="M94.2,22.65c0,0.22-0.19,0.4-0.42,0.4c-0.24,0-0.43-0.18-0.43-0.4c0-0.22,0.19-0.4,0.43-0.4
		C94.01,22.26,94.2,22.44,94.2,22.65z"/>
	<path class="st0" d="M95.64,30.61c0,0.22-0.19,0.4-0.43,0.4c-0.23,0-0.43-0.18-0.43-0.4c0-0.22,0.19-0.4,0.43-0.4
		C95.45,30.22,95.64,30.4,95.64,30.61z"/>
	<path class="st0" d="M100.22,34.81c0,0.22-0.19,0.4-0.43,0.4c-0.24,0-0.43-0.18-0.43-0.4c0-0.22,0.19-0.39,0.43-0.39
		C100.02,34.42,100.22,34.6,100.22,34.81z"/>
	<path class="st0" d="M66.08,31.72c0,0.22-0.19,0.4-0.43,0.4c-0.24,0-0.43-0.18-0.43-0.4c0-0.22,0.19-0.4,0.43-0.4
		C65.89,31.32,66.08,31.5,66.08,31.72z"/>
	<path class="st0" d="M77.93,31.78c0,0.22-0.19,0.4-0.43,0.4c-0.24,0-0.43-0.18-0.43-0.4c0-0.22,0.19-0.4,0.43-0.4
		C77.74,31.39,77.93,31.57,77.93,31.78z"/>
	<path class="st0" d="M107.34,29.97c0,0.22-0.19,0.4-0.43,0.4s-0.43-0.17-0.43-0.4c0-0.21,0.19-0.39,0.43-0.39
		S107.34,29.76,107.34,29.97z"/>
	<path class="st0" d="M116.43,18.63c0,0.22-0.19,0.39-0.43,0.39c-0.24,0-0.43-0.17-0.43-0.39c0-0.22,0.19-0.4,0.43-0.4
		C116.24,18.24,116.43,18.42,116.43,18.63z"/>
	<path class="st0" d="M93.24,28c0,0.22-0.19,0.4-0.43,0.4c-0.24,0-0.43-0.18-0.43-0.4c0-0.22,0.19-0.39,0.43-0.39
		C93.05,27.6,93.24,27.78,93.24,28z"/>
	<path class="st0" d="M94.01,13.14c0,0.22-0.19,0.4-0.43,0.4c-0.24,0-0.43-0.18-0.43-0.4c0-0.22,0.19-0.39,0.43-0.39
		C93.81,12.75,94.01,12.93,94.01,13.14z"/>
	<path class="st0" d="M103.41,8.85c0,0.22-0.19,0.39-0.43,0.39c-0.24,0-0.43-0.18-0.43-0.39c0-0.22,0.19-0.4,0.43-0.4
		C103.21,8.45,103.41,8.63,103.41,8.85z"/>
	<path class="st0" d="M110.91,7.68c0,0.22-0.19,0.39-0.43,0.39c-0.23,0-0.43-0.18-0.43-0.39c0-0.22,0.19-0.4,0.43-0.4
		C110.72,7.29,110.91,7.47,110.91,7.68z"/>
	<path class="st0" d="M116.31,7.68c0,0.22-0.19,0.39-0.43,0.39c-0.24,0-0.43-0.18-0.43-0.39c0-0.22,0.19-0.4,0.43-0.4
		C116.11,7.29,116.31,7.47,116.31,7.68z"/>
	<path class="st0" d="M116.2,9.56c0,0.22-0.19,0.4-0.43,0.4c-0.24,0-0.43-0.18-0.43-0.4c0-0.22,0.19-0.39,0.43-0.39
		C116.01,9.17,116.2,9.34,116.2,9.56z"/>
	<path class="st0" d="M109.5,11.84c0,0.22-0.19,0.39-0.43,0.39c-0.24,0-0.43-0.17-0.43-0.39c0-0.22,0.19-0.4,0.43-0.4
		C109.31,11.44,109.5,11.62,109.5,11.84z"/>
	<path class="st0" d="M101.43,15.4c0,0.22-0.19,0.4-0.43,0.4c-0.24,0-0.43-0.18-0.43-0.4c0-0.22,0.19-0.39,0.43-0.39
		C101.24,15.01,101.43,15.19,101.43,15.4z"/>
	<path class="st0" d="M71.42,16.72c0,0.22-0.19,0.4-0.43,0.4c-0.24,0-0.43-0.18-0.43-0.4c0-0.22,0.19-0.39,0.43-0.39
		C71.23,16.33,71.42,16.5,71.42,16.72z"/>
	<path class="st0" d="M76.22,19.36c0,0.31-0.27,0.56-0.6,0.56c-0.33,0-0.6-0.25-0.6-0.56c0-0.31,0.27-0.56,0.6-0.56
		C75.95,18.8,76.22,19.05,76.22,19.36z"/>
	<path class="st0" d="M92.96,16.94c0,0.31-0.27,0.56-0.6,0.56s-0.61-0.25-0.61-0.56s0.27-0.56,0.61-0.56S92.96,16.63,92.96,16.94z"
		/>
	<path class="st0" d="M104.92,16.96c0,0.31-0.27,0.56-0.61,0.56c-0.33,0-0.6-0.25-0.6-0.56c0-0.31,0.27-0.56,0.6-0.56
		C104.65,16.4,104.92,16.65,104.92,16.96z"/>
	<path class="st0" d="M69.85,24.4c0,0.31-0.27,0.56-0.61,0.56c-0.33,0-0.6-0.25-0.6-0.56s0.27-0.56,0.6-0.56
		C69.58,23.84,69.85,24.09,69.85,24.4z"/>
	<polygon class="st0" points="98.15,14.78 95.6,14.78 95.6,14.64 98.09,14.64 100.19,12.64 104.88,12.64 105.78,11.81 109.84,11.81 
		112.24,14.03 112.13,14.13 109.78,11.96 105.85,11.96 104.95,12.79 100.26,12.79 	"/>
	<polygon class="st0" points="112.07,17.79 107.79,17.79 104.77,15 101.71,15 98.84,17.66 88.93,17.66 86.61,15.51 83.33,15.51 
		83.33,15.37 86.68,15.37 88.99,17.51 98.78,17.51 101.64,14.86 104.84,14.86 107.86,17.65 112.07,17.65 	"/>
	<polygon class="st0" points="89.31,19.73 82.58,19.73 81.4,18.63 76.54,18.63 76.54,18.49 81.47,18.49 82.65,19.59 89.24,19.59 
		93.29,15.84 99.46,15.84 102.27,13.24 109.74,13.24 111,14.4 112.24,14.4 112.24,14.55 110.93,14.55 109.67,13.39 102.34,13.39 
		99.52,15.99 93.35,15.99 	"/>
	<polygon class="st0" points="103.39,28.51 100.65,28.51 97.83,25.9 94.25,25.9 86.3,18.54 83.38,18.54 83.38,18.39 86.36,18.39 
		94.31,25.75 97.89,25.75 100.71,28.36 103.39,28.36 	"/>
	<polygon class="st0" points="106.77,20.34 102.77,20.34 101.17,18.86 92.38,18.86 92.38,18.56 101.29,18.56 102.9,20.05 
		106.64,20.05 108.68,18.16 112.24,18.16 112.24,18.45 108.81,18.45 	"/>
	<polygon class="st0" points="99.79,23.07 93.44,23.07 93.44,22.93 99.72,22.93 101.7,21.1 108.57,21.1 109.84,19.91 112.5,19.91 
		112.5,20.06 109.91,20.06 108.63,21.24 101.76,21.24 	"/>
	<polygon class="st0" points="104.3,25.77 101.49,25.77 95.48,20.21 91.59,20.21 88.71,22.88 79.26,22.88 77.66,24.36 75.38,24.36 
		75.38,24.07 77.52,24.07 79.13,22.58 88.58,22.58 91.46,19.91 95.61,19.91 101.62,25.48 104.17,25.48 105.45,24.29 112.44,24.29 
		112.44,24.58 105.59,24.58 	"/>
	<polygon class="st0" points="100.66,25.07 90.29,25.07 85.53,20.66 80.01,20.66 80.01,20.37 85.66,20.37 90.42,24.78 100.53,24.78 
		102.76,22.72 112.24,22.72 112.24,23.01 102.89,23.01 	"/>
	<polygon class="st0" points="78.88,26.1 75.38,26.1 75.38,25.95 78.82,25.95 81.16,23.78 87.91,23.78 87.91,23.92 81.23,23.92 	"/>
	<polygon class="st0" points="109.95,32.09 97.88,32.09 94.46,28.92 88.3,28.92 85.88,26.68 83.43,26.68 83.43,26.53 85.94,26.53 
		88.36,28.77 94.52,28.77 97.94,31.94 109.88,31.94 112.04,29.94 112.81,29.94 112.81,30.09 112.11,30.09 	"/>
	<polygon class="st0" points="107.95,35.99 97.77,35.99 96.72,35.02 91.19,35.02 83.98,28.34 74.25,28.34 72.8,29.68 72.69,29.58 
		74.19,28.19 84.04,28.19 91.26,34.87 96.79,34.87 97.84,35.84 107.88,35.84 108.67,35.11 112.66,35.11 112.66,35.26 108.74,35.26 	
		"/>
	<polygon class="st0" points="89.73,29.8 81.38,29.8 81.38,29.65 89.67,29.65 92.72,26.83 103.67,26.83 107.15,23.61 112.5,23.61 
		112.5,23.75 107.21,23.75 103.74,26.97 92.78,26.97 	"/>
	<path class="st0" d="M95.91,14.71c0,0.16-0.14,0.29-0.31,0.29c-0.17,0-0.32-0.13-0.32-0.29c0-0.16,0.14-0.29,0.32-0.29
		C95.77,14.42,95.91,14.55,95.91,14.71z"/>
	<path class="st0" d="M83.64,15.46c0,0.16-0.14,0.29-0.32,0.29c-0.17,0-0.31-0.13-0.31-0.29c0-0.16,0.14-0.29,0.31-0.29
		C83.5,15.17,83.64,15.31,83.64,15.46z"/>
	<path class="st0" d="M83.75,18.54c0,0.16-0.14,0.29-0.32,0.29c-0.17,0-0.32-0.13-0.32-0.29s0.14-0.29,0.32-0.29
		C83.61,18.24,83.75,18.38,83.75,18.54z"/>
	<path class="st0" d="M75.75,26.02c0,0.16-0.14,0.29-0.32,0.29c-0.17,0-0.31-0.13-0.31-0.29c0-0.16,0.14-0.29,0.31-0.29
		C75.61,25.73,75.75,25.86,75.75,26.02z"/>
	<path class="st0" d="M88.22,23.85c0,0.16-0.14,0.29-0.32,0.29c-0.18,0-0.32-0.13-0.32-0.29c0-0.16,0.14-0.29,0.32-0.29
		C88.08,23.56,88.22,23.69,88.22,23.85z"/>
	<path class="st0" d="M83.8,26.58c0,0.16-0.14,0.29-0.32,0.29c-0.17,0-0.31-0.13-0.31-0.29c0-0.16,0.14-0.29,0.31-0.29
		C83.66,26.29,83.8,26.42,83.8,26.58z"/>
	<path class="st0" d="M84.38,28.34c0,0.16-0.14,0.29-0.32,0.29c-0.17,0-0.32-0.13-0.32-0.29c0-0.16,0.14-0.29,0.32-0.29
		C84.24,28.04,84.38,28.18,84.38,28.34z"/>
	<path class="st0" d="M98.08,25.78c0,0.16-0.14,0.29-0.32,0.29c-0.17,0-0.31-0.13-0.31-0.29c0-0.16,0.14-0.29,0.31-0.29
		C97.94,25.48,98.08,25.62,98.08,25.78z"/>
	<path class="st0" d="M102.04,21.1c0,0.16-0.14,0.29-0.32,0.29c-0.18,0-0.32-0.13-0.32-0.29c0-0.16,0.14-0.29,0.32-0.29
		C101.89,20.81,102.04,20.94,102.04,21.1z"/>
	<path class="st0" d="M89.27,17.59c0,0.16-0.14,0.29-0.31,0.29c-0.18,0-0.32-0.13-0.32-0.29c0-0.16,0.14-0.29,0.32-0.29
		C89.13,17.29,89.27,17.43,89.27,17.59z"/>
	<path class="st0" d="M93.78,22.95c0,0.16-0.14,0.29-0.32,0.29c-0.17,0-0.31-0.13-0.31-0.29c0-0.16,0.14-0.29,0.31-0.29
		C93.64,22.66,93.78,22.79,93.78,22.95z"/>
	<path class="st0" d="M94.84,28.84c0,0.16-0.14,0.29-0.31,0.29c-0.17,0-0.32-0.13-0.32-0.29c0-0.16,0.14-0.29,0.32-0.29
		C94.7,28.54,94.84,28.67,94.84,28.84z"/>
	<path class="st0" d="M98.23,31.94c0,0.16-0.14,0.29-0.32,0.29c-0.17,0-0.32-0.13-0.32-0.29c0-0.16,0.14-0.29,0.32-0.29
		C98.09,31.65,98.23,31.78,98.23,31.94z"/>
	<path class="st0" d="M72.98,29.65c0,0.16-0.14,0.29-0.32,0.29c-0.17,0-0.32-0.13-0.32-0.29c0-0.16,0.14-0.29,0.32-0.29
		C72.84,29.36,72.98,29.49,72.98,29.65z"/>
	<path class="st0" d="M81.75,29.7c0,0.16-0.14,0.29-0.32,0.29c-0.17,0-0.31-0.13-0.31-0.29c0-0.16,0.14-0.29,0.31-0.29
		C81.61,29.41,81.75,29.54,81.75,29.7z"/>
	<path class="st0" d="M103.5,28.36c0,0.17-0.14,0.29-0.32,0.29c-0.18,0-0.32-0.13-0.32-0.29c0-0.16,0.14-0.29,0.32-0.29
		C103.35,28.07,103.5,28.2,103.5,28.36z"/>
	<path class="st0" d="M110.22,19.98c0,0.16-0.14,0.29-0.32,0.29c-0.18,0-0.32-0.13-0.32-0.29c0-0.16,0.14-0.29,0.32-0.29
		C110.08,19.68,110.22,19.82,110.22,19.98z"/>
	<path class="st0" d="M93.07,26.9c0,0.16-0.14,0.29-0.32,0.29c-0.17,0-0.32-0.13-0.32-0.29c0-0.16,0.14-0.29,0.32-0.29
		C92.93,26.61,93.07,26.74,93.07,26.9z"/>
	<path class="st0" d="M93.63,15.92c0,0.16-0.14,0.29-0.32,0.29c-0.17,0-0.32-0.13-0.32-0.29c0-0.16,0.14-0.29,0.32-0.29
		C93.49,15.62,93.63,15.75,93.63,15.92z"/>
	<path class="st0" d="M100.59,12.74c0,0.16-0.14,0.29-0.32,0.29c-0.17,0-0.32-0.13-0.32-0.29s0.14-0.29,0.32-0.29
		C100.44,12.44,100.59,12.58,100.59,12.74z"/>
	<path class="st0" d="M106.13,11.88c0,0.16-0.14,0.29-0.32,0.29c-0.17,0-0.32-0.13-0.32-0.29s0.14-0.29,0.32-0.29
		C105.99,11.58,106.13,11.72,106.13,11.88z"/>
	<path class="st0" d="M110.13,11.88c0,0.16-0.14,0.29-0.32,0.29c-0.18,0-0.32-0.13-0.32-0.29s0.14-0.29,0.32-0.29
		C109.99,11.58,110.13,11.72,110.13,11.88z"/>
	<path class="st0" d="M110.05,13.27c0,0.16-0.14,0.29-0.32,0.29c-0.17,0-0.32-0.13-0.32-0.29c0-0.16,0.14-0.29,0.32-0.29
		C109.91,12.97,110.05,13.1,110.05,13.27z"/>
	<path class="st0" d="M105.09,14.95c0,0.16-0.14,0.29-0.32,0.29c-0.17,0-0.31-0.13-0.31-0.29s0.14-0.29,0.31-0.29
		C104.95,14.66,105.09,14.79,105.09,14.95z"/>
	<path class="st0" d="M99.12,17.59c0,0.16-0.14,0.29-0.31,0.29c-0.18,0-0.32-0.13-0.32-0.29c0-0.16,0.14-0.29,0.32-0.29
		C98.98,17.29,99.12,17.43,99.12,17.59z"/>
	<path class="st0" d="M76.93,18.56c0,0.16-0.14,0.29-0.32,0.29c-0.17,0-0.31-0.13-0.31-0.29s0.14-0.29,0.31-0.29
		C76.79,18.27,76.93,18.4,76.93,18.56z"/>
	<path class="st0" d="M80.48,20.51c0,0.23-0.2,0.42-0.45,0.42c-0.25,0-0.45-0.19-0.45-0.42c0-0.23,0.2-0.41,0.45-0.41
		C80.28,20.1,80.48,20.28,80.48,20.51z"/>
	<path class="st0" d="M92.86,18.72c0,0.23-0.2,0.41-0.45,0.41c-0.25,0-0.45-0.19-0.45-0.41c0-0.23,0.2-0.41,0.45-0.41
		C92.66,18.31,92.86,18.49,92.86,18.72z"/>
	<path class="st0" d="M101.71,18.74c0,0.23-0.2,0.41-0.45,0.41c-0.24,0-0.45-0.18-0.45-0.41c0-0.23,0.2-0.41,0.45-0.41
		C101.51,18.32,101.71,18.51,101.71,18.74z"/>
	<path class="st0" d="M75.77,24.24c0,0.23-0.2,0.41-0.45,0.41c-0.25,0-0.45-0.18-0.45-0.41c0-0.23,0.2-0.41,0.45-0.41
		C75.57,23.83,75.77,24.01,75.77,24.24z"/>
	<polygon class="st0" points="97.45,15.93 95.21,15.93 95.21,15.8 97.39,15.8 99.23,14.05 103.32,14.05 104.11,13.33 107.65,13.33 
		109.74,15.26 109.65,15.35 107.6,13.46 104.16,13.46 103.38,14.18 99.29,14.18 	"/>
	<polygon class="st0" points="109.6,18.55 105.86,18.55 103.23,16.12 100.55,16.12 98.05,18.44 89.39,18.44 87.37,16.56 84.5,16.56 
		84.5,16.44 87.43,16.44 89.45,18.31 97.99,18.31 100.5,15.99 103.29,15.99 105.92,18.43 109.6,18.43 	"/>
	<polygon class="st0" points="89.72,20.25 83.85,20.25 82.82,19.29 78.57,19.29 78.57,19.16 82.88,19.16 83.91,20.12 89.67,20.12 
		93.2,16.85 98.59,16.85 101.04,14.58 107.56,14.58 108.66,15.59 109.74,15.59 109.74,15.72 108.6,15.72 107.51,14.71 101.1,14.71 
		98.64,16.98 93.25,16.98 	"/>
	<polygon class="st0" points="102.02,27.91 99.62,27.91 97.16,25.63 94.04,25.63 87.09,19.2 84.55,19.2 84.55,19.08 87.15,19.08 
		94.09,25.5 97.22,25.5 99.68,27.78 102.02,27.78 	"/>
	<polygon class="st0" points="104.97,20.78 101.48,20.78 100.08,19.48 92.41,19.48 92.41,19.22 100.19,19.22 101.59,20.52 
		104.86,20.52 106.64,18.87 109.74,18.87 109.74,19.13 106.75,19.13 	"/>
	<polygon class="st0" points="98.87,23.16 93.33,23.16 93.33,23.04 98.82,23.04 100.54,21.44 106.54,21.44 107.65,20.41 
		109.97,20.41 109.97,20.53 107.72,20.53 106.6,21.57 100.6,21.57 	"/>
	<polygon class="st0" points="102.81,25.52 100.36,25.52 95.11,20.66 91.72,20.66 89.2,22.99 80.95,22.99 79.55,24.29 77.56,24.29 
		77.56,24.03 79.43,24.03 80.84,22.74 89.09,22.74 91.61,20.41 95.22,20.41 100.47,25.26 102.7,25.26 103.82,24.22 109.92,24.22 
		109.92,24.48 103.94,24.48 	"/>
	<polygon class="st0" points="99.64,24.91 90.58,24.91 86.42,21.06 81.61,21.06 81.61,20.8 86.54,20.8 90.69,24.65 99.52,24.65 
		101.47,22.85 109.74,22.85 109.74,23.11 101.58,23.11 	"/>
	<polygon class="st0" points="80.62,25.8 77.56,25.8 77.56,25.67 80.57,25.67 82.61,23.78 88.5,23.78 88.5,23.91 82.67,23.91 	"/>
	<polygon class="st0" points="107.75,31.04 97.21,31.04 94.22,28.27 88.84,28.27 86.73,26.31 84.59,26.31 84.59,26.18 86.78,26.18 
		88.9,28.14 94.28,28.14 97.26,30.91 107.69,30.91 109.58,29.16 110.25,29.16 110.25,29.29 109.63,29.29 	"/>
	<polygon class="st0" points="106,34.44 97.12,34.44 96.2,33.59 91.37,33.59 85.07,27.76 76.58,27.76 75.31,28.93 75.21,28.84 
		76.52,27.63 85.13,27.63 91.42,33.46 96.25,33.46 97.17,34.31 105.94,34.31 106.63,33.68 110.11,33.68 110.11,33.8 106.69,33.8 	
		"/>
	<polygon class="st0" points="90.09,29.04 82.8,29.04 82.8,28.91 90.04,28.91 92.7,26.44 102.26,26.44 105.3,23.63 109.97,23.63 
		109.97,23.76 105.36,23.76 102.32,26.57 92.76,26.57 	"/>
	<path class="st0" d="M95.49,15.86c0,0.14-0.12,0.26-0.27,0.26c-0.15,0-0.28-0.12-0.28-0.26c0-0.14,0.12-0.25,0.28-0.25
		C95.37,15.61,95.49,15.72,95.49,15.86z"/>
	<path class="st0" d="M84.78,16.52c0,0.14-0.12,0.26-0.28,0.26c-0.15,0-0.28-0.12-0.28-0.26c0-0.14,0.12-0.25,0.28-0.25
		C84.65,16.27,84.78,16.38,84.78,16.52z"/>
	<path class="st0" d="M84.87,19.2c0,0.14-0.12,0.25-0.28,0.25c-0.15,0-0.28-0.11-0.28-0.25c0-0.14,0.12-0.26,0.28-0.26
		C84.75,18.95,84.87,19.06,84.87,19.2z"/>
	<path class="st0" d="M77.88,25.74c0,0.14-0.12,0.26-0.27,0.26c-0.15,0-0.28-0.12-0.28-0.26c0-0.14,0.12-0.25,0.28-0.25
		C77.76,25.48,77.88,25.6,77.88,25.74z"/>
	<path class="st0" d="M88.78,23.84c0,0.14-0.12,0.26-0.28,0.26c-0.15,0-0.28-0.12-0.28-0.26c0-0.14,0.12-0.26,0.28-0.26
		C88.65,23.59,88.78,23.7,88.78,23.84z"/>
	<path class="st0" d="M84.91,26.23c0,0.14-0.12,0.25-0.28,0.25c-0.15,0-0.27-0.11-0.27-0.25c0-0.14,0.12-0.26,0.27-0.26
		C84.79,25.97,84.91,26.09,84.91,26.23z"/>
	<path class="st0" d="M85.42,27.76c0,0.14-0.12,0.25-0.27,0.25c-0.15,0-0.28-0.11-0.28-0.25c0-0.14,0.12-0.26,0.28-0.26
		C85.3,27.5,85.42,27.62,85.42,27.76z"/>
	<path class="st0" d="M97.38,25.53c0,0.14-0.12,0.25-0.28,0.25s-0.27-0.11-0.27-0.25s0.12-0.26,0.27-0.26S97.38,25.38,97.38,25.53z"
		/>
	<path class="st0" d="M100.84,21.44c0,0.14-0.12,0.26-0.28,0.26c-0.15,0-0.28-0.12-0.28-0.26c0-0.14,0.13-0.25,0.28-0.25
		C100.71,21.18,100.84,21.3,100.84,21.44z"/>
	<path class="st0" d="M89.7,18.37c0,0.14-0.12,0.26-0.28,0.26c-0.15,0-0.27-0.11-0.27-0.26c0-0.14,0.12-0.25,0.27-0.25
		C89.57,18.12,89.7,18.23,89.7,18.37z"/>
	<path class="st0" d="M93.63,23.06c0,0.14-0.12,0.26-0.28,0.26c-0.15,0-0.27-0.12-0.27-0.26c0-0.14,0.12-0.26,0.27-0.26
		C93.5,22.8,93.63,22.91,93.63,23.06z"/>
	<path class="st0" d="M94.56,28.2c0,0.14-0.12,0.26-0.28,0.26c-0.15,0-0.27-0.12-0.27-0.26c0-0.14,0.12-0.26,0.27-0.26
		C94.43,27.94,94.56,28.05,94.56,28.2z"/>
	<path class="st0" d="M97.51,30.91c0,0.14-0.12,0.26-0.28,0.26s-0.28-0.11-0.28-0.26c0-0.14,0.12-0.25,0.28-0.25
		S97.51,30.77,97.51,30.91z"/>
	<path class="st0" d="M75.47,28.91c0,0.14-0.12,0.25-0.28,0.25c-0.15,0-0.28-0.11-0.28-0.25c0-0.14,0.12-0.26,0.28-0.26
		C75.34,28.65,75.47,28.77,75.47,28.91z"/>
	<path class="st0" d="M83.12,28.95c0,0.14-0.12,0.25-0.28,0.25s-0.27-0.11-0.27-0.25c0-0.14,0.12-0.26,0.27-0.26
		S83.12,28.81,83.12,28.95z"/>
	<path class="st0" d="M102.11,27.78c0,0.14-0.12,0.26-0.28,0.26s-0.28-0.11-0.28-0.26c0-0.14,0.12-0.25,0.28-0.25
		S102.11,27.64,102.11,27.78z"/>
	<path class="st0" d="M107.98,20.46c0,0.14-0.12,0.25-0.28,0.25c-0.15,0-0.28-0.11-0.28-0.25c0-0.14,0.12-0.26,0.28-0.26
		C107.86,20.2,107.98,20.32,107.98,20.46z"/>
	<path class="st0" d="M93.01,26.51c0,0.14-0.12,0.26-0.27,0.26c-0.15,0-0.28-0.12-0.28-0.26c0-0.14,0.12-0.25,0.28-0.25
		C92.88,26.25,93.01,26.36,93.01,26.51z"/>
	<path class="st0" d="M93.5,16.92c0,0.14-0.12,0.26-0.28,0.26s-0.28-0.12-0.28-0.26s0.12-0.25,0.28-0.25S93.5,16.77,93.5,16.92z"/>
	<path class="st0" d="M99.57,14.14c0,0.14-0.12,0.25-0.28,0.25c-0.15,0-0.28-0.11-0.28-0.25c0-0.14,0.12-0.26,0.28-0.26
		C99.45,13.88,99.57,14,99.57,14.14z"/>
	<path class="st0" d="M104.41,13.39c0,0.14-0.12,0.25-0.28,0.25c-0.15,0-0.27-0.11-0.27-0.25c0-0.14,0.12-0.26,0.27-0.26
		C104.29,13.13,104.41,13.25,104.41,13.39z"/>
	<path class="st0" d="M107.9,13.39c0,0.14-0.12,0.25-0.28,0.25s-0.28-0.11-0.28-0.25c0-0.14,0.12-0.26,0.28-0.26
		S107.9,13.25,107.9,13.39z"/>
	<path class="st0" d="M107.84,14.6c0,0.14-0.12,0.26-0.28,0.26s-0.28-0.12-0.28-0.26c0-0.14,0.12-0.25,0.28-0.25
		S107.84,14.46,107.84,14.6z"/>
	<path class="st0" d="M103.51,16.07c0,0.14-0.12,0.25-0.28,0.25c-0.15,0-0.28-0.11-0.28-0.25c0-0.14,0.12-0.26,0.28-0.26
		C103.38,15.81,103.51,15.93,103.51,16.07z"/>
	<path class="st0" d="M98.29,18.37c0,0.14-0.12,0.26-0.27,0.26s-0.28-0.11-0.28-0.26c0-0.14,0.12-0.25,0.28-0.25
		S98.29,18.23,98.29,18.37z"/>
	<path class="st0" d="M78.92,19.22c0,0.14-0.12,0.26-0.28,0.26c-0.15,0-0.27-0.12-0.27-0.26c0-0.14,0.12-0.25,0.27-0.25
		C78.79,18.97,78.92,19.08,78.92,19.22z"/>
	<path class="st0" d="M82.02,20.93c0,0.2-0.17,0.36-0.39,0.36c-0.21,0-0.39-0.16-0.39-0.36c0-0.2,0.18-0.36,0.39-0.36
		C81.84,20.57,82.02,20.73,82.02,20.93z"/>
	<path class="st0" d="M92.83,19.36c0,0.2-0.18,0.36-0.39,0.36c-0.22,0-0.39-0.16-0.39-0.36c0-0.2,0.18-0.36,0.39-0.36
		C92.65,19,92.83,19.16,92.83,19.36z"/>
	<path class="st0" d="M100.55,19.38c0,0.2-0.17,0.36-0.39,0.36c-0.22,0-0.39-0.16-0.39-0.36c0-0.2,0.17-0.36,0.39-0.36
		C100.38,19.02,100.55,19.18,100.55,19.38z"/>
	<path class="st0" d="M77.9,24.18c0,0.2-0.17,0.36-0.39,0.36c-0.22,0-0.39-0.16-0.39-0.36c0-0.2,0.17-0.36,0.39-0.36
		C77.73,23.82,77.9,23.98,77.9,24.18z"/>
	<polygon class="st0" points="-0.12,11.61 3.34,11.61 3.34,11.42 -0.03,11.42 -2.88,8.71 -9.21,8.71 -10.43,7.59 -15.93,7.59 
		-19.16,10.59 -19.01,10.73 -15.83,7.79 -10.51,7.79 -9.3,8.91 -2.97,8.91 	"/>
	<polygon class="st0" points="-18.94,15.68 -13.15,15.68 -9.07,11.91 -4.92,11.91 -1.04,15.5 12.36,15.5 15.49,12.6 19.93,12.6 
		19.93,12.4 15.4,12.4 12.27,15.3 -0.96,15.3 -4.84,11.71 -9.16,11.71 -13.24,15.49 -18.94,15.49 	"/>
	<polygon class="st0" points="11.84,18.3 20.94,18.3 22.54,16.82 29.11,16.82 29.11,16.62 22.45,16.62 20.85,18.11 11.93,18.11 
		6.47,13.05 -1.88,13.05 -5.68,9.53 -15.78,9.53 -17.48,11.1 -19.15,11.1 -19.15,11.3 -17.39,11.3 -15.69,9.73 -5.77,9.73 
		-1.97,13.25 6.38,13.25 	"/>
	<polygon class="st0" points="-7.19,30.17 -3.49,30.17 0.32,26.64 5.17,26.64 15.92,16.69 19.86,16.69 19.86,16.49 15.83,16.49 
		5.08,26.44 0.24,26.44 -3.57,29.97 -7.19,29.97 	"/>
	<polygon class="st0" points="-11.77,19.13 -6.36,19.13 -4.19,17.12 7.69,17.12 7.69,16.72 -4.36,16.72 -6.54,18.73 -11.59,18.73 
		-14.35,16.18 -19.15,16.18 -19.15,16.57 -14.53,16.57 	"/>
	<polygon class="st0" points="-2.32,22.82 6.26,22.82 6.26,22.62 -2.24,22.62 -4.91,20.15 -14.2,20.15 -15.93,18.55 -19.51,18.55 
		-19.51,18.75 -16.01,18.75 -14.29,20.35 -5,20.35 	"/>
	<polygon class="st0" points="-8.42,26.47 -4.62,26.47 3.5,18.95 8.76,18.95 12.65,22.56 25.43,22.56 27.6,24.57 30.68,24.57 
		30.68,24.17 27.78,24.17 25.61,22.16 12.83,22.16 8.93,18.55 3.33,18.55 -4.8,26.07 -8.24,26.07 -9.98,24.46 -19.44,24.46 
		-19.44,24.86 -10.16,24.86 	"/>
	<polygon class="st0" points="-3.51,25.52 10.52,25.52 16.96,19.56 24.42,19.56 24.42,19.16 16.78,19.16 10.34,25.13 -3.33,25.13 
		-6.34,22.34 -19.15,22.34 -19.15,22.74 -6.52,22.74 	"/>
	<polygon class="st0" points="25.94,26.91 30.68,26.91 30.68,26.71 26.02,26.71 22.86,23.77 13.74,23.77 13.74,23.97 22.77,23.97 	
		"/>
	<polygon class="st0" points="-16.07,35.01 0.25,35.01 4.88,30.73 13.21,30.73 16.48,27.7 19.79,27.7 19.79,27.5 16.4,27.5 
		13.12,30.53 4.79,30.53 0.17,34.81 -15.98,34.81 -18.9,32.11 -19.94,32.11 -19.94,32.31 -18.99,32.31 	"/>
	<polygon class="st0" points="-13.36,40.29 0.4,40.29 1.82,38.97 9.3,38.97 19.05,29.94 32.2,29.94 34.16,31.76 34.32,31.62 
		32.29,29.74 18.96,29.74 9.21,38.77 1.73,38.77 0.31,40.09 -13.27,40.09 -14.34,39.1 -19.72,39.1 -19.72,39.3 -14.43,39.3 	"/>
	<polygon class="st0" points="11.27,31.92 22.57,31.92 22.57,31.72 11.36,31.72 7.23,27.89 -7.57,27.89 -12.28,23.55 -19.51,23.55 
		-19.51,23.74 -12.36,23.74 -7.67,28.09 7.14,28.09 	"/>
	<path class="st0" d="M2.92,11.52c0,0.22,0.19,0.4,0.43,0.4c0.24,0,0.43-0.18,0.43-0.4c0-0.22-0.19-0.39-0.43-0.39
		C3.1,11.12,2.92,11.3,2.92,11.52z"/>
	<path class="st0" d="M19.5,12.53c0,0.22,0.19,0.4,0.43,0.4c0.23,0,0.43-0.18,0.43-0.4c0-0.22-0.19-0.39-0.43-0.39
		C19.7,12.14,19.5,12.32,19.5,12.53z"/>
	<path class="st0" d="M19.36,16.69c0,0.22,0.19,0.39,0.43,0.39c0.24,0,0.43-0.18,0.43-0.39c0-0.22-0.19-0.4-0.43-0.4
		C19.55,16.29,19.36,16.47,19.36,16.69z"/>
	<path class="st0" d="M30.18,26.81c0,0.22,0.19,0.4,0.43,0.4c0.24,0,0.43-0.18,0.43-0.4c0-0.22-0.19-0.4-0.43-0.4
		C30.37,26.41,30.18,26.59,30.18,26.81z"/>
	<ellipse class="st0" cx="13.74" cy="23.87" rx="0.43" ry="0.4"/>
	<path class="st0" d="M19.29,27.57c0,0.22,0.19,0.39,0.43,0.39c0.24,0,0.43-0.17,0.43-0.39c0-0.22-0.19-0.4-0.43-0.4
		C19.48,27.17,19.29,27.35,19.29,27.57z"/>
	<path class="st0" d="M18.51,29.94c0,0.22,0.19,0.39,0.43,0.39c0.24,0,0.43-0.18,0.43-0.39c0-0.22-0.19-0.4-0.43-0.4
		C18.7,29.54,18.51,29.72,18.51,29.94z"/>
	<path class="st0" d="M-0.02,26.48c0,0.22,0.19,0.4,0.43,0.4c0.23,0,0.43-0.18,0.43-0.4c0-0.22-0.19-0.4-0.43-0.4
		C0.17,26.08-0.02,26.26-0.02,26.48z"/>
	<path class="st0" d="M-5.36,20.15c0,0.22,0.19,0.4,0.43,0.4c0.24,0,0.43-0.18,0.43-0.4c0-0.22-0.19-0.39-0.43-0.39
		C-5.17,19.76-5.36,19.93-5.36,20.15z"/>
	<path class="st0" d="M11.89,15.4c0,0.22,0.19,0.4,0.43,0.4c0.24,0,0.43-0.18,0.43-0.4c0-0.22-0.19-0.39-0.43-0.39
		C12.08,15.01,11.89,15.19,11.89,15.4z"/>
	<path class="st0" d="M5.8,22.65c0,0.22,0.19,0.4,0.42,0.4c0.24,0,0.43-0.18,0.43-0.4c0-0.22-0.19-0.4-0.43-0.4
		C5.99,22.26,5.8,22.44,5.8,22.65z"/>
	<path class="st0" d="M4.36,30.61c0,0.22,0.19,0.4,0.43,0.4c0.23,0,0.43-0.18,0.43-0.4c0-0.22-0.19-0.4-0.43-0.4
		C4.55,30.22,4.36,30.4,4.36,30.61z"/>
	<path class="st0" d="M-0.22,34.81c0,0.22,0.19,0.4,0.43,0.4c0.24,0,0.43-0.18,0.43-0.4c0-0.22-0.19-0.39-0.43-0.39
		C-0.02,34.42-0.22,34.6-0.22,34.81z"/>
	<path class="st0" d="M33.92,31.72c0,0.22,0.19,0.4,0.43,0.4c0.24,0,0.43-0.18,0.43-0.4c0-0.22-0.19-0.4-0.43-0.4
		C34.11,31.32,33.92,31.5,33.92,31.72z"/>
	<path class="st0" d="M22.07,31.78c0,0.22,0.19,0.4,0.43,0.4c0.24,0,0.43-0.18,0.43-0.4c0-0.22-0.19-0.4-0.43-0.4
		C22.26,31.39,22.07,31.57,22.07,31.78z"/>
	<path class="st0" d="M-7.34,29.97c0,0.22,0.19,0.4,0.43,0.4c0.24,0,0.43-0.17,0.43-0.4c0-0.21-0.19-0.39-0.43-0.39
		C-7.15,29.58-7.34,29.76-7.34,29.97z"/>
	<path class="st0" d="M-16.43,18.63c0,0.22,0.19,0.39,0.43,0.39c0.24,0,0.43-0.17,0.43-0.39c0-0.22-0.19-0.4-0.43-0.4
		C-16.24,18.24-16.43,18.42-16.43,18.63z"/>
	<path class="st0" d="M6.76,28c0,0.22,0.19,0.4,0.43,0.4c0.24,0,0.43-0.18,0.43-0.4c0-0.22-0.19-0.39-0.43-0.39
		C6.95,27.6,6.76,27.78,6.76,28z"/>
	<path class="st0" d="M5.99,13.14c0,0.22,0.19,0.4,0.43,0.4c0.24,0,0.43-0.18,0.43-0.4c0-0.22-0.19-0.39-0.43-0.39
		C6.19,12.75,5.99,12.93,5.99,13.14z"/>
	<path class="st0" d="M-3.41,8.85c0,0.22,0.19,0.39,0.43,0.39c0.24,0,0.43-0.18,0.43-0.39c0-0.22-0.19-0.4-0.43-0.4
		C-3.21,8.45-3.41,8.63-3.41,8.85z"/>
	<path class="st0" d="M-10.91,7.68c0,0.22,0.19,0.39,0.43,0.39c0.23,0,0.43-0.18,0.43-0.39c0-0.22-0.19-0.4-0.43-0.4
		C-10.72,7.29-10.91,7.47-10.91,7.68z"/>
	<path class="st0" d="M-16.31,7.68c0,0.22,0.19,0.39,0.43,0.39c0.24,0,0.43-0.18,0.43-0.39c0-0.22-0.19-0.4-0.43-0.4
		C-16.11,7.29-16.31,7.47-16.31,7.68z"/>
	<path class="st0" d="M-16.2,9.56c0,0.22,0.19,0.4,0.43,0.4c0.24,0,0.43-0.18,0.43-0.4c0-0.22-0.19-0.39-0.43-0.39
		C-16.01,9.17-16.2,9.34-16.2,9.56z"/>
	<path class="st0" d="M-9.5,11.84c0,0.22,0.19,0.39,0.43,0.39c0.24,0,0.43-0.17,0.43-0.39c0-0.22-0.19-0.4-0.43-0.4
		C-9.31,11.44-9.5,11.62-9.5,11.84z"/>
	<path class="st0" d="M-1.43,15.4c0,0.22,0.19,0.4,0.43,0.4c0.24,0,0.43-0.18,0.43-0.4c0-0.22-0.19-0.39-0.43-0.39
		C-1.24,15.01-1.43,15.19-1.43,15.4z"/>
	<path class="st0" d="M28.58,16.72c0,0.22,0.19,0.4,0.43,0.4c0.24,0,0.43-0.18,0.43-0.4c0-0.22-0.19-0.39-0.43-0.39
		C28.77,16.33,28.58,16.5,28.58,16.72z"/>
	<path class="st0" d="M23.78,19.36c0,0.31,0.27,0.56,0.6,0.56c0.33,0,0.6-0.25,0.6-0.56c0-0.31-0.27-0.56-0.6-0.56
		C24.05,18.8,23.78,19.05,23.78,19.36z"/>
	<path class="st0" d="M7.04,16.94c0,0.31,0.27,0.56,0.6,0.56s0.61-0.25,0.61-0.56s-0.27-0.56-0.61-0.56S7.04,16.63,7.04,16.94z"/>
	<path class="st0" d="M-4.92,16.96c0,0.31,0.27,0.56,0.61,0.56c0.33,0,0.6-0.25,0.6-0.56c0-0.31-0.27-0.56-0.6-0.56
		C-4.65,16.4-4.92,16.65-4.92,16.96z"/>
	<path class="st0" d="M30.15,24.4c0,0.31,0.27,0.56,0.61,0.56s0.6-0.25,0.6-0.56s-0.27-0.56-0.6-0.56S30.15,24.09,30.15,24.4z"/>
	<polygon class="st0" points="1.85,14.78 4.4,14.78 4.4,14.64 1.91,14.64 -0.19,12.64 -4.88,12.64 -5.78,11.81 -9.84,11.81 
		-12.24,14.03 -12.13,14.13 -9.78,11.96 -5.85,11.96 -4.95,12.79 -0.26,12.79 	"/>
	<polygon class="st0" points="-12.07,17.79 -7.79,17.79 -4.77,15 -1.71,15 1.16,17.66 11.07,17.66 13.39,15.51 16.67,15.51 
		16.67,15.37 13.32,15.37 11.01,17.51 1.22,17.51 -1.64,14.86 -4.84,14.86 -7.86,17.65 -12.07,17.65 	"/>
	<polygon class="st0" points="10.69,19.73 17.42,19.73 18.6,18.63 23.46,18.63 23.46,18.49 18.53,18.49 17.35,19.59 10.76,19.59 
		6.71,15.84 0.54,15.84 -2.27,13.24 -9.74,13.24 -11,14.4 -12.24,14.4 -12.24,14.55 -10.93,14.55 -9.67,13.39 -2.34,13.39 
		0.48,15.99 6.65,15.99 	"/>
	<polygon class="st0" points="-3.39,28.51 -0.65,28.51 2.17,25.9 5.75,25.9 13.7,18.54 16.62,18.54 16.62,18.39 13.64,18.39 
		5.69,25.75 2.11,25.75 -0.71,28.36 -3.39,28.36 	"/>
	<polygon class="st0" points="-6.77,20.34 -2.77,20.34 -1.17,18.86 7.62,18.86 7.62,18.56 -1.29,18.56 -2.9,20.05 -6.64,20.05 
		-8.68,18.16 -12.24,18.16 -12.24,18.45 -8.81,18.45 	"/>
	<polygon class="st0" points="0.21,23.07 6.56,23.07 6.56,22.93 0.28,22.93 -1.7,21.1 -8.57,21.1 -9.84,19.91 -12.5,19.91 
		-12.5,20.06 -9.91,20.06 -8.63,21.24 -1.76,21.24 	"/>
	<polygon class="st0" points="-4.3,25.77 -1.49,25.77 4.52,20.21 8.41,20.21 11.29,22.88 20.74,22.88 22.34,24.36 24.62,24.36 
		24.62,24.07 22.48,24.07 20.87,22.58 11.42,22.58 8.54,19.91 4.39,19.91 -1.62,25.48 -4.17,25.48 -5.45,24.29 -12.44,24.29 
		-12.44,24.58 -5.59,24.58 	"/>
	<polygon class="st0" points="-0.66,25.07 9.71,25.07 14.47,20.66 19.99,20.66 19.99,20.37 14.34,20.37 9.58,24.78 -0.53,24.78 
		-2.76,22.72 -12.24,22.72 -12.24,23.01 -2.89,23.01 	"/>
	<polygon class="st0" points="21.12,26.1 24.62,26.1 24.62,25.95 21.18,25.95 18.84,23.78 12.09,23.78 12.09,23.92 18.77,23.92 	"/>
	<polygon class="st0" points="-9.95,32.09 2.12,32.09 5.54,28.92 11.7,28.92 14.12,26.68 16.57,26.68 16.57,26.53 14.06,26.53 
		11.64,28.77 5.48,28.77 2.06,31.94 -9.88,31.94 -12.04,29.94 -12.81,29.94 -12.81,30.09 -12.11,30.09 	"/>
	<polygon class="st0" points="-7.95,35.99 2.23,35.99 3.28,35.02 8.81,35.02 16.02,28.34 25.75,28.34 27.2,29.68 27.31,29.58 
		25.81,28.19 15.96,28.19 8.74,34.87 3.21,34.87 2.16,35.84 -7.88,35.84 -8.67,35.11 -12.66,35.11 -12.66,35.26 -8.74,35.26 	"/>
	<polygon class="st0" points="10.27,29.8 18.62,29.8 18.62,29.65 10.33,29.65 7.28,26.83 -3.67,26.83 -7.15,23.61 -12.5,23.61 
		-12.5,23.75 -7.21,23.75 -3.74,26.97 7.22,26.97 	"/>
	<path class="st0" d="M4.09,14.71C4.09,14.87,4.23,15,4.4,15c0.17,0,0.32-0.13,0.32-0.29c0-0.16-0.14-0.29-0.32-0.29
		C4.23,14.42,4.09,14.55,4.09,14.71z"/>
	<path class="st0" d="M16.36,15.46c0,0.16,0.14,0.29,0.32,0.29c0.17,0,0.31-0.13,0.31-0.29c0-0.16-0.14-0.29-0.31-0.29
		C16.5,15.17,16.36,15.31,16.36,15.46z"/>
	<path class="st0" d="M16.25,18.54c0,0.16,0.14,0.29,0.32,0.29c0.17,0,0.32-0.13,0.32-0.29s-0.14-0.29-0.32-0.29
		C16.39,18.24,16.25,18.38,16.25,18.54z"/>
	<path class="st0" d="M24.25,26.02c0,0.16,0.14,0.29,0.32,0.29c0.17,0,0.31-0.13,0.31-0.29c0-0.16-0.14-0.29-0.31-0.29
		C24.39,25.73,24.25,25.86,24.25,26.02z"/>
	<path class="st0" d="M11.78,23.85c0,0.16,0.14,0.29,0.32,0.29c0.18,0,0.32-0.13,0.32-0.29c0-0.16-0.14-0.29-0.32-0.29
		C11.92,23.56,11.78,23.69,11.78,23.85z"/>
	<path class="st0" d="M16.2,26.58c0,0.16,0.14,0.29,0.32,0.29c0.17,0,0.31-0.13,0.31-0.29c0-0.16-0.14-0.29-0.31-0.29
		C16.34,26.29,16.2,26.42,16.2,26.58z"/>
	<path class="st0" d="M15.62,28.34c0,0.16,0.14,0.29,0.32,0.29c0.17,0,0.32-0.13,0.32-0.29c0-0.16-0.14-0.29-0.32-0.29
		C15.76,28.04,15.62,28.18,15.62,28.34z"/>
	<path class="st0" d="M1.92,25.78c0,0.16,0.14,0.29,0.32,0.29c0.17,0,0.31-0.13,0.31-0.29c0-0.16-0.14-0.29-0.31-0.29
		C2.06,25.48,1.92,25.62,1.92,25.78z"/>
	<path class="st0" d="M-2.04,21.1c0,0.16,0.14,0.29,0.32,0.29c0.18,0,0.32-0.13,0.32-0.29c0-0.16-0.14-0.29-0.32-0.29
		C-1.89,20.81-2.04,20.94-2.04,21.1z"/>
	<path class="st0" d="M10.73,17.59c0,0.16,0.14,0.29,0.31,0.29c0.18,0,0.32-0.13,0.32-0.29c0-0.16-0.14-0.29-0.32-0.29
		C10.87,17.29,10.73,17.43,10.73,17.59z"/>
	<path class="st0" d="M6.22,22.95c0,0.16,0.14,0.29,0.32,0.29c0.17,0,0.31-0.13,0.31-0.29c0-0.16-0.14-0.29-0.31-0.29
		C6.36,22.66,6.22,22.79,6.22,22.95z"/>
	<path class="st0" d="M5.16,28.84c0,0.16,0.14,0.29,0.31,0.29c0.17,0,0.32-0.13,0.32-0.29c0-0.16-0.14-0.29-0.32-0.29
		C5.3,28.54,5.16,28.67,5.16,28.84z"/>
	<path class="st0" d="M1.77,31.94c0,0.16,0.14,0.29,0.32,0.29c0.17,0,0.32-0.13,0.32-0.29c0-0.16-0.14-0.29-0.32-0.29
		C1.91,31.65,1.77,31.78,1.77,31.94z"/>
	<path class="st0" d="M27.02,29.65c0,0.16,0.14,0.29,0.32,0.29s0.32-0.13,0.32-0.29c0-0.16-0.14-0.29-0.32-0.29
		S27.02,29.49,27.02,29.65z"/>
	<path class="st0" d="M18.25,29.7c0,0.16,0.14,0.29,0.32,0.29c0.17,0,0.31-0.13,0.31-0.29c0-0.16-0.14-0.29-0.31-0.29
		C18.39,29.41,18.25,29.54,18.25,29.7z"/>
	<path class="st0" d="M-3.5,28.36c0,0.17,0.14,0.29,0.32,0.29c0.18,0,0.32-0.13,0.32-0.29c0-0.16-0.14-0.29-0.32-0.29
		C-3.35,28.07-3.5,28.2-3.5,28.36z"/>
	<path class="st0" d="M-10.22,19.98c0,0.16,0.14,0.29,0.32,0.29c0.18,0,0.32-0.13,0.32-0.29c0-0.16-0.14-0.29-0.32-0.29
		C-10.08,19.68-10.22,19.82-10.22,19.98z"/>
	<path class="st0" d="M6.93,26.9c0,0.16,0.14,0.29,0.32,0.29c0.17,0,0.32-0.13,0.32-0.29c0-0.16-0.14-0.29-0.32-0.29
		C7.07,26.61,6.93,26.74,6.93,26.9z"/>
	<path class="st0" d="M6.37,15.92c0,0.16,0.14,0.29,0.32,0.29c0.17,0,0.32-0.13,0.32-0.29c0-0.16-0.14-0.29-0.32-0.29
		C6.51,15.62,6.37,15.75,6.37,15.92z"/>
	<path class="st0" d="M-0.59,12.74c0,0.16,0.14,0.29,0.32,0.29c0.17,0,0.32-0.13,0.32-0.29s-0.14-0.29-0.32-0.29
		C-0.44,12.44-0.59,12.58-0.59,12.74z"/>
	<path class="st0" d="M-6.13,11.88c0,0.16,0.14,0.29,0.32,0.29c0.17,0,0.32-0.13,0.32-0.29s-0.14-0.29-0.32-0.29
		C-5.99,11.58-6.13,11.72-6.13,11.88z"/>
	<path class="st0" d="M-10.13,11.88c0,0.16,0.14,0.29,0.32,0.29c0.18,0,0.32-0.13,0.32-0.29s-0.14-0.29-0.32-0.29
		C-9.99,11.58-10.13,11.72-10.13,11.88z"/>
	<path class="st0" d="M-10.05,13.27c0,0.16,0.14,0.29,0.32,0.29c0.17,0,0.32-0.13,0.32-0.29c0-0.16-0.14-0.29-0.32-0.29
		C-9.91,12.97-10.05,13.1-10.05,13.27z"/>
	<path class="st0" d="M-5.09,14.95c0,0.16,0.14,0.29,0.32,0.29c0.17,0,0.31-0.13,0.31-0.29s-0.14-0.29-0.31-0.29
		C-4.95,14.66-5.09,14.79-5.09,14.95z"/>
	<path class="st0" d="M0.88,17.59c0,0.16,0.14,0.29,0.31,0.29c0.18,0,0.32-0.13,0.32-0.29c0-0.16-0.14-0.29-0.32-0.29
		C1.02,17.29,0.88,17.43,0.88,17.59z"/>
	<path class="st0" d="M23.07,18.56c0,0.16,0.14,0.29,0.32,0.29s0.31-0.13,0.31-0.29s-0.14-0.29-0.31-0.29S23.07,18.4,23.07,18.56z"
		/>
	<path class="st0" d="M19.52,20.51c0,0.23,0.2,0.42,0.45,0.42c0.25,0,0.45-0.19,0.45-0.42c0-0.23-0.2-0.41-0.45-0.41
		C19.72,20.1,19.52,20.28,19.52,20.51z"/>
	<path class="st0" d="M7.14,18.72c0,0.23,0.2,0.41,0.45,0.41c0.25,0,0.45-0.19,0.45-0.41c0-0.23-0.2-0.41-0.45-0.41
		C7.34,18.31,7.14,18.49,7.14,18.72z"/>
	<path class="st0" d="M-1.71,18.74c0,0.23,0.2,0.41,0.45,0.41c0.24,0,0.45-0.18,0.45-0.41c0-0.23-0.2-0.41-0.45-0.41
		C-1.51,18.32-1.71,18.51-1.71,18.74z"/>
	<path class="st0" d="M24.23,24.24c0,0.23,0.2,0.41,0.45,0.41c0.25,0,0.45-0.18,0.45-0.41c0-0.23-0.2-0.41-0.45-0.41
		C24.43,23.83,24.23,24.01,24.23,24.24z"/>
	<polygon class="st0" points="2.55,15.93 4.79,15.93 4.79,15.8 2.61,15.8 0.77,14.05 -3.32,14.05 -4.11,13.33 -7.65,13.33 
		-9.74,15.26 -9.65,15.35 -7.6,13.46 -4.16,13.46 -3.38,14.18 0.71,14.18 	"/>
	<polygon class="st0" points="-9.6,18.55 -5.86,18.55 -3.23,16.12 -0.55,16.12 1.95,18.44 10.61,18.44 12.63,16.56 15.5,16.56 
		15.5,16.44 12.57,16.44 10.55,18.31 2.01,18.31 -0.5,15.99 -3.29,15.99 -5.92,18.43 -9.6,18.43 	"/>
	<polygon class="st0" points="10.28,20.25 16.15,20.25 17.18,19.29 21.43,19.29 21.43,19.16 17.12,19.16 16.09,20.12 10.33,20.12 
		6.8,16.85 1.41,16.85 -1.04,14.58 -7.56,14.58 -8.66,15.59 -9.74,15.59 -9.74,15.72 -8.6,15.72 -7.51,14.71 -1.1,14.71 1.36,16.98 
		6.75,16.98 	"/>
	<polygon class="st0" points="-2.02,27.91 0.38,27.91 2.84,25.63 5.96,25.63 12.91,19.2 15.45,19.2 15.45,19.08 12.85,19.08 
		5.91,25.5 2.78,25.5 0.32,27.78 -2.02,27.78 	"/>
	<polygon class="st0" points="-4.97,20.78 -1.48,20.78 -0.08,19.48 7.59,19.48 7.59,19.22 -0.19,19.22 -1.59,20.52 -4.86,20.52 
		-6.64,18.87 -9.74,18.87 -9.74,19.13 -6.75,19.13 	"/>
	<polygon class="st0" points="1.13,23.16 6.67,23.16 6.67,23.04 1.18,23.04 -0.54,21.44 -6.54,21.44 -7.65,20.41 -9.97,20.41 
		-9.97,20.53 -7.72,20.53 -6.6,21.57 -0.6,21.57 	"/>
	<polygon class="st0" points="-2.81,25.52 -0.36,25.52 4.89,20.66 8.28,20.66 10.8,22.99 19.05,22.99 20.45,24.29 22.44,24.29 
		22.44,24.03 20.57,24.03 19.16,22.74 10.91,22.74 8.39,20.41 4.78,20.41 -0.47,25.26 -2.7,25.26 -3.82,24.22 -9.92,24.22 
		-9.92,24.48 -3.94,24.48 	"/>
	<polygon class="st0" points="0.36,24.91 9.42,24.91 13.58,21.06 18.39,21.06 18.39,20.8 13.46,20.8 9.31,24.65 0.48,24.65 
		-1.47,22.85 -9.74,22.85 -9.74,23.11 -1.58,23.11 	"/>
	<polygon class="st0" points="19.38,25.8 22.44,25.8 22.44,25.67 19.43,25.67 17.39,23.78 11.5,23.78 11.5,23.91 17.33,23.91 	"/>
	<polygon class="st0" points="-7.75,31.04 2.79,31.04 5.78,28.27 11.16,28.27 13.27,26.31 15.41,26.31 15.41,26.18 13.22,26.18 
		11.1,28.14 5.72,28.14 2.74,30.91 -7.69,30.91 -9.58,29.16 -10.25,29.16 -10.25,29.29 -9.63,29.29 	"/>
	<polygon class="st0" points="-6,34.44 2.88,34.44 3.8,33.59 8.63,33.59 14.93,27.76 23.42,27.76 24.69,28.93 24.79,28.84 
		23.48,27.63 14.87,27.63 8.58,33.46 3.75,33.46 2.83,34.31 -5.94,34.31 -6.63,33.68 -10.11,33.68 -10.11,33.8 -6.69,33.8 	"/>
	<polygon class="st0" points="9.91,29.04 17.2,29.04 17.2,28.91 9.96,28.91 7.3,26.44 -2.26,26.44 -5.3,23.63 -9.97,23.63 
		-9.97,23.76 -5.36,23.76 -2.32,26.57 7.24,26.57 	"/>
	<path class="st0" d="M4.51,15.86c0,0.14,0.12,0.26,0.27,0.26c0.15,0,0.28-0.12,0.28-0.26c0-0.14-0.12-0.25-0.28-0.25
		C4.63,15.61,4.51,15.72,4.51,15.86z"/>
	<path class="st0" d="M15.22,16.52c0,0.14,0.12,0.26,0.28,0.26c0.15,0,0.28-0.12,0.28-0.26c0-0.14-0.12-0.25-0.28-0.25
		C15.35,16.27,15.22,16.38,15.22,16.52z"/>
	<path class="st0" d="M15.13,19.2c0,0.14,0.12,0.25,0.28,0.25s0.28-0.11,0.28-0.25c0-0.14-0.12-0.26-0.28-0.26
		S15.13,19.06,15.13,19.2z"/>
	<path class="st0" d="M22.12,25.74c0,0.14,0.12,0.26,0.27,0.26c0.15,0,0.28-0.12,0.28-0.26c0-0.14-0.12-0.25-0.28-0.25
		C22.24,25.48,22.12,25.6,22.12,25.74z"/>
	<path class="st0" d="M11.22,23.84c0,0.14,0.12,0.26,0.28,0.26s0.28-0.12,0.28-0.26c0-0.14-0.12-0.26-0.28-0.26
		S11.22,23.7,11.22,23.84z"/>
	<path class="st0" d="M15.09,26.23c0,0.14,0.12,0.25,0.28,0.25c0.15,0,0.27-0.11,0.27-0.25c0-0.14-0.12-0.26-0.27-0.26
		C15.21,25.97,15.09,26.09,15.09,26.23z"/>
	<path class="st0" d="M14.58,27.76c0,0.14,0.12,0.25,0.27,0.25c0.15,0,0.28-0.11,0.28-0.25c0-0.14-0.12-0.26-0.28-0.26
		C14.7,27.5,14.58,27.62,14.58,27.76z"/>
	<path class="st0" d="M2.62,25.53c0,0.14,0.12,0.25,0.28,0.25c0.15,0,0.27-0.11,0.27-0.25s-0.12-0.26-0.27-0.26
		C2.74,25.27,2.62,25.38,2.62,25.53z"/>
	<path class="st0" d="M-0.84,21.44c0,0.14,0.12,0.26,0.28,0.26s0.28-0.12,0.28-0.26c0-0.14-0.13-0.25-0.28-0.25
		S-0.84,21.3-0.84,21.44z"/>
	<path class="st0" d="M10.3,18.37c0,0.14,0.12,0.26,0.28,0.26s0.27-0.11,0.27-0.26c0-0.14-0.12-0.25-0.27-0.25
		S10.3,18.23,10.3,18.37z"/>
	<path class="st0" d="M6.37,23.06c0,0.14,0.12,0.26,0.28,0.26c0.15,0,0.27-0.12,0.27-0.26c0-0.14-0.12-0.26-0.27-0.26
		C6.5,22.8,6.37,22.91,6.37,23.06z"/>
	<path class="st0" d="M5.44,28.2c0,0.14,0.12,0.26,0.28,0.26c0.15,0,0.27-0.12,0.27-0.26c0-0.14-0.12-0.26-0.27-0.26
		C5.57,27.94,5.44,28.05,5.44,28.2z"/>
	<path class="st0" d="M2.49,30.91c0,0.14,0.12,0.26,0.28,0.26c0.15,0,0.28-0.11,0.28-0.26c0-0.14-0.12-0.25-0.28-0.25
		C2.61,30.65,2.49,30.77,2.49,30.91z"/>
	<path class="st0" d="M24.53,28.91c0,0.14,0.12,0.25,0.28,0.25c0.15,0,0.28-0.11,0.28-0.25c0-0.14-0.12-0.26-0.28-0.26
		C24.66,28.65,24.53,28.77,24.53,28.91z"/>
	<path class="st0" d="M16.88,28.95c0,0.14,0.12,0.25,0.28,0.25s0.27-0.11,0.27-0.25c0-0.14-0.12-0.26-0.27-0.26
		S16.88,28.81,16.88,28.95z"/>
	<path class="st0" d="M-2.11,27.78c0,0.14,0.12,0.26,0.28,0.26s0.28-0.11,0.28-0.26c0-0.14-0.12-0.25-0.28-0.25
		S-2.11,27.64-2.11,27.78z"/>
	<path class="st0" d="M-7.98,20.46c0,0.14,0.12,0.25,0.28,0.25c0.15,0,0.28-0.11,0.28-0.25c0-0.14-0.12-0.26-0.28-0.26
		C-7.86,20.2-7.98,20.32-7.98,20.46z"/>
	<path class="st0" d="M6.99,26.51c0,0.14,0.12,0.26,0.27,0.26c0.15,0,0.28-0.12,0.28-0.26c0-0.14-0.12-0.25-0.28-0.25
		C7.12,26.25,6.99,26.36,6.99,26.51z"/>
	<path class="st0" d="M6.5,16.92c0,0.14,0.12,0.26,0.28,0.26s0.28-0.12,0.28-0.26s-0.12-0.25-0.28-0.25S6.5,16.77,6.5,16.92z"/>
	<path class="st0" d="M0.43,14.14c0,0.14,0.12,0.25,0.28,0.25s0.28-0.11,0.28-0.25c0-0.14-0.12-0.26-0.28-0.26S0.43,14,0.43,14.14z"
		/>
	<path class="st0" d="M-4.41,13.39c0,0.14,0.12,0.25,0.28,0.25c0.15,0,0.27-0.11,0.27-0.25c0-0.14-0.12-0.26-0.27-0.26
		C-4.29,13.13-4.41,13.25-4.41,13.39z"/>
	<path class="st0" d="M-7.9,13.39c0,0.14,0.12,0.25,0.28,0.25c0.15,0,0.28-0.11,0.28-0.25c0-0.14-0.12-0.26-0.28-0.26
		C-7.78,13.13-7.9,13.25-7.9,13.39z"/>
	<path class="st0" d="M-7.84,14.6c0,0.14,0.12,0.26,0.28,0.26c0.15,0,0.28-0.12,0.28-0.26c0-0.14-0.12-0.25-0.28-0.25
		C-7.71,14.35-7.84,14.46-7.84,14.6z"/>
	<path class="st0" d="M-3.51,16.07c0,0.14,0.12,0.25,0.28,0.25c0.15,0,0.28-0.11,0.28-0.25c0-0.14-0.12-0.26-0.28-0.26
		C-3.38,15.81-3.51,15.93-3.51,16.07z"/>
	<path class="st0" d="M1.71,18.37c0,0.14,0.12,0.26,0.27,0.26s0.28-0.11,0.28-0.26c0-0.14-0.12-0.25-0.28-0.25
		S1.71,18.23,1.71,18.37z"/>
	<path class="st0" d="M21.08,19.22c0,0.14,0.12,0.26,0.28,0.26c0.15,0,0.27-0.12,0.27-0.26c0-0.14-0.12-0.25-0.27-0.25
		C21.21,18.97,21.08,19.08,21.08,19.22z"/>
	<path class="st0" d="M17.98,20.93c0,0.2,0.17,0.36,0.39,0.36c0.21,0,0.39-0.16,0.39-0.36c0-0.2-0.18-0.36-0.39-0.36
		C18.16,20.57,17.98,20.73,17.98,20.93z"/>
	<path class="st0" d="M7.17,19.36c0,0.2,0.18,0.36,0.39,0.36c0.22,0,0.39-0.16,0.39-0.36c0-0.2-0.18-0.36-0.39-0.36
		C7.35,19,7.17,19.16,7.17,19.36z"/>
	<path class="st0" d="M-0.55,19.38c0,0.2,0.17,0.36,0.39,0.36c0.22,0,0.39-0.16,0.39-0.36c0-0.2-0.17-0.36-0.39-0.36
		C-0.38,19.02-0.55,19.18-0.55,19.38z"/>
	<path class="st0" d="M22.1,24.18c0,0.2,0.17,0.36,0.39,0.36c0.22,0,0.39-0.16,0.39-0.36c0-0.2-0.17-0.36-0.39-0.36
		C22.27,23.82,22.1,23.98,22.1,24.18z"/>
</g>
</svg>
